<mxfile host="app.diagrams.net" agent="Mozilla/5.0 (Windows NT 10.0; Win64; x64) AppleWebKit/537.36 (KHTML, like Gecko) Chrome/132.0.0.0 Safari/537.36" version="26.0.14">
  <diagram id="R2lEEEUBdFMjLlhIrx00" name="Page-1">
    <mxGraphModel dx="5369" dy="3742" grid="1" gridSize="10" guides="1" tooltips="1" connect="1" arrows="1" fold="1" page="1" pageScale="1" pageWidth="1169" pageHeight="1654" background="none" math="0" shadow="0" extFonts="Permanent Marker^https://fonts.googleapis.com/css?family=Permanent+Marker">
      <root>
        <mxCell id="0" />
        <mxCell id="1" parent="0" />
        <mxCell id="rQkRtYJSGVrKPp-QHFrH-78" value="Customer" style="rounded=0;whiteSpace=wrap;html=1;fontFamily=gadugi;fillColor=#ffe6cc;strokeColor=light-dark(#fe3496, #996500);fontSize=23;fontStyle=1" parent="1" vertex="1">
          <mxGeometry x="-730" y="-1173" width="180" height="83" as="geometry" />
        </mxCell>
        <mxCell id="rQkRtYJSGVrKPp-QHFrH-79" style="edgeStyle=orthogonalEdgeStyle;rounded=0;orthogonalLoop=1;jettySize=auto;html=1;exitX=0.5;exitY=1;exitDx=0;exitDy=0;" parent="1" source="rQkRtYJSGVrKPp-QHFrH-78" target="rQkRtYJSGVrKPp-QHFrH-78" edge="1">
          <mxGeometry relative="1" as="geometry" />
        </mxCell>
        <mxCell id="rQkRtYJSGVrKPp-QHFrH-80" style="edgeStyle=orthogonalEdgeStyle;rounded=0;orthogonalLoop=1;jettySize=auto;html=1;exitX=0.5;exitY=1;exitDx=0;exitDy=0;" parent="1" source="rQkRtYJSGVrKPp-QHFrH-81" edge="1">
          <mxGeometry relative="1" as="geometry">
            <mxPoint x="-730" y="-1173" as="targetPoint" />
            <Array as="points">
              <mxPoint x="-810" y="-1173" />
              <mxPoint x="-700" y="-1173" />
            </Array>
          </mxGeometry>
        </mxCell>
        <mxCell id="rQkRtYJSGVrKPp-QHFrH-81" value="&lt;u&gt;Customer_ID&lt;/u&gt;" style="ellipse;whiteSpace=wrap;html=1;fontStyle=1;fillColor=#d0cee2;strokeColor=#56517e;fontFamily=gadugi;fontSize=20;" parent="1" vertex="1">
          <mxGeometry x="-980" y="-1230" width="190" height="47" as="geometry" />
        </mxCell>
        <mxCell id="rQkRtYJSGVrKPp-QHFrH-83" value="Password" style="ellipse;whiteSpace=wrap;html=1;fontStyle=1;fillColor=#d0cee2;strokeColor=#56517e;fontFamily=gadugi;fontSize=20;" parent="1" vertex="1">
          <mxGeometry x="-460" y="-1240" width="180" height="40" as="geometry" />
        </mxCell>
        <mxCell id="rQkRtYJSGVrKPp-QHFrH-84" value="Customer_Phone" style="ellipse;whiteSpace=wrap;html=1;fontStyle=1;fillColor=#d0cee2;strokeColor=#56517e;fontFamily=gadugi;fontSize=20;" parent="1" vertex="1">
          <mxGeometry x="-580" y="-1320" width="200" height="50" as="geometry" />
        </mxCell>
        <mxCell id="rQkRtYJSGVrKPp-QHFrH-85" value="Customer_Name" style="ellipse;whiteSpace=wrap;html=1;fontStyle=1;fillColor=#d0cee2;strokeColor=#56517e;fontFamily=gadugi;fontSize=20;" parent="1" vertex="1">
          <mxGeometry x="-900" y="-1320" width="200" height="50" as="geometry" />
        </mxCell>
        <mxCell id="rQkRtYJSGVrKPp-QHFrH-86" style="edgeStyle=orthogonalEdgeStyle;rounded=0;orthogonalLoop=1;jettySize=auto;html=1;exitX=0.5;exitY=1;exitDx=0;exitDy=0;" parent="1" source="rQkRtYJSGVrKPp-QHFrH-87" target="rQkRtYJSGVrKPp-QHFrH-78" edge="1">
          <mxGeometry relative="1" as="geometry">
            <mxPoint x="-640" y="-1262.9999999999998" as="sourcePoint" />
          </mxGeometry>
        </mxCell>
        <mxCell id="rQkRtYJSGVrKPp-QHFrH-87" value="Customer_Email" style="ellipse;whiteSpace=wrap;html=1;fontStyle=1;fillColor=#d0cee2;strokeColor=#56517e;fontSize=20;fontFamily=gadugi;" parent="1" vertex="1">
          <mxGeometry x="-740" y="-1370" width="200" height="50" as="geometry" />
        </mxCell>
        <mxCell id="rQkRtYJSGVrKPp-QHFrH-88" style="edgeStyle=orthogonalEdgeStyle;rounded=0;orthogonalLoop=1;jettySize=auto;html=1;exitX=0.5;exitY=1;exitDx=0;exitDy=0;" parent="1" source="rQkRtYJSGVrKPp-QHFrH-84" edge="1">
          <mxGeometry relative="1" as="geometry">
            <mxPoint x="-620" y="-1180" as="targetPoint" />
          </mxGeometry>
        </mxCell>
        <mxCell id="rQkRtYJSGVrKPp-QHFrH-89" style="edgeStyle=orthogonalEdgeStyle;rounded=0;orthogonalLoop=1;jettySize=auto;html=1;exitX=0.5;exitY=1;exitDx=0;exitDy=0;entryX=0.365;entryY=-0.01;entryDx=0;entryDy=0;entryPerimeter=0;" parent="1" source="rQkRtYJSGVrKPp-QHFrH-85" target="rQkRtYJSGVrKPp-QHFrH-78" edge="1">
          <mxGeometry relative="1" as="geometry" />
        </mxCell>
        <mxCell id="rQkRtYJSGVrKPp-QHFrH-106" value="" style="rhombus;whiteSpace=wrap;html=1;fillColor=#fff2cc;strokeColor=#d6b656;gradientColor=#ffd966;" parent="1" vertex="1">
          <mxGeometry x="-70" y="-1170" width="90" height="80" as="geometry" />
        </mxCell>
        <mxCell id="rQkRtYJSGVrKPp-QHFrH-108" style="edgeStyle=orthogonalEdgeStyle;rounded=0;orthogonalLoop=1;jettySize=auto;html=1;exitX=0.5;exitY=1;exitDx=0;exitDy=0;" parent="1" source="rQkRtYJSGVrKPp-QHFrH-107" target="rQkRtYJSGVrKPp-QHFrH-107" edge="1">
          <mxGeometry relative="1" as="geometry" />
        </mxCell>
        <mxCell id="rQkRtYJSGVrKPp-QHFrH-435" style="edgeStyle=orthogonalEdgeStyle;rounded=0;orthogonalLoop=1;jettySize=auto;html=1;exitX=0.5;exitY=1;exitDx=0;exitDy=0;entryX=0;entryY=0.5;entryDx=0;entryDy=0;" parent="1" source="rQkRtYJSGVrKPp-QHFrH-110" target="rQkRtYJSGVrKPp-QHFrH-107" edge="1">
          <mxGeometry relative="1" as="geometry" />
        </mxCell>
        <mxCell id="rQkRtYJSGVrKPp-QHFrH-110" value="&lt;u&gt;Admin_ID&lt;/u&gt;" style="ellipse;whiteSpace=wrap;html=1;fontStyle=1;fillColor=#d0cee2;strokeColor=#56517e;fontSize=20;" parent="1" vertex="1">
          <mxGeometry x="310" y="-1240" width="190" height="50" as="geometry" />
        </mxCell>
        <mxCell id="rQkRtYJSGVrKPp-QHFrH-111" style="edgeStyle=orthogonalEdgeStyle;rounded=0;orthogonalLoop=1;jettySize=auto;html=1;exitX=0.5;exitY=1;exitDx=0;exitDy=0;" parent="1" source="rQkRtYJSGVrKPp-QHFrH-112" target="rQkRtYJSGVrKPp-QHFrH-107" edge="1">
          <mxGeometry relative="1" as="geometry">
            <Array as="points">
              <mxPoint x="1010" y="-1152" />
            </Array>
          </mxGeometry>
        </mxCell>
        <mxCell id="rQkRtYJSGVrKPp-QHFrH-112" value="Password" style="ellipse;whiteSpace=wrap;html=1;fontStyle=1;fillColor=#d0cee2;strokeColor=#56517e;fontSize=20;" parent="1" vertex="1">
          <mxGeometry x="940" y="-1240" width="160" height="50" as="geometry" />
        </mxCell>
        <mxCell id="rQkRtYJSGVrKPp-QHFrH-113" value="Admin_Image" style="ellipse;whiteSpace=wrap;html=1;fontStyle=1;fillColor=#d0cee2;strokeColor=#56517e;fontSize=20;" parent="1" vertex="1">
          <mxGeometry x="820" y="-1330" width="190" height="50" as="geometry" />
        </mxCell>
        <mxCell id="rQkRtYJSGVrKPp-QHFrH-114" value="Admin_Name" style="ellipse;whiteSpace=wrap;html=1;fontStyle=1;fillColor=#d0cee2;strokeColor=#56517e;fontSize=20;" parent="1" vertex="1">
          <mxGeometry x="430" y="-1330" width="190" height="50" as="geometry" />
        </mxCell>
        <mxCell id="rQkRtYJSGVrKPp-QHFrH-115" style="edgeStyle=orthogonalEdgeStyle;rounded=0;orthogonalLoop=1;jettySize=auto;html=1;exitX=0.5;exitY=1;exitDx=0;exitDy=0;" parent="1" source="rQkRtYJSGVrKPp-QHFrH-116" target="rQkRtYJSGVrKPp-QHFrH-107" edge="1">
          <mxGeometry relative="1" as="geometry" />
        </mxCell>
        <mxCell id="rQkRtYJSGVrKPp-QHFrH-116" value="Admin_Email" style="ellipse;whiteSpace=wrap;html=1;fontStyle=1;fillColor=#d0cee2;strokeColor=#56517e;fontSize=20;" parent="1" vertex="1">
          <mxGeometry x="620" y="-1380" width="190" height="50" as="geometry" />
        </mxCell>
        <mxCell id="rQkRtYJSGVrKPp-QHFrH-117" style="edgeStyle=orthogonalEdgeStyle;rounded=0;orthogonalLoop=1;jettySize=auto;html=1;exitX=0.5;exitY=1;exitDx=0;exitDy=0;entryX=0.69;entryY=-0.024;entryDx=0;entryDy=0;entryPerimeter=0;" parent="1" source="rQkRtYJSGVrKPp-QHFrH-113" target="rQkRtYJSGVrKPp-QHFrH-107" edge="1">
          <mxGeometry relative="1" as="geometry">
            <mxPoint x="750" y="-1162" as="targetPoint" />
          </mxGeometry>
        </mxCell>
        <mxCell id="rQkRtYJSGVrKPp-QHFrH-118" style="edgeStyle=orthogonalEdgeStyle;rounded=0;orthogonalLoop=1;jettySize=auto;html=1;exitX=0.5;exitY=1;exitDx=0;exitDy=0;entryX=0.365;entryY=-0.01;entryDx=0;entryDy=0;entryPerimeter=0;" parent="1" source="rQkRtYJSGVrKPp-QHFrH-114" target="rQkRtYJSGVrKPp-QHFrH-107" edge="1">
          <mxGeometry relative="1" as="geometry" />
        </mxCell>
        <mxCell id="rQkRtYJSGVrKPp-QHFrH-122" value="Cart_Item" style="rounded=0;whiteSpace=wrap;html=1;fontFamily=gadugi;fillColor=#ffe6cc;strokeColor=light-dark(#fe3496, #996500);fontStyle=1;fontSize=23;" parent="1" vertex="1">
          <mxGeometry x="280" y="709.5" width="200" height="90.5" as="geometry" />
        </mxCell>
        <mxCell id="rQkRtYJSGVrKPp-QHFrH-123" style="edgeStyle=orthogonalEdgeStyle;rounded=0;orthogonalLoop=1;jettySize=auto;html=1;exitX=0.5;exitY=1;exitDx=0;exitDy=0;" parent="1" source="rQkRtYJSGVrKPp-QHFrH-122" target="rQkRtYJSGVrKPp-QHFrH-122" edge="1">
          <mxGeometry relative="1" as="geometry" />
        </mxCell>
        <mxCell id="rQkRtYJSGVrKPp-QHFrH-124" style="edgeStyle=orthogonalEdgeStyle;rounded=0;orthogonalLoop=1;jettySize=auto;html=1;exitX=0.5;exitY=1;exitDx=0;exitDy=0;" parent="1" source="rQkRtYJSGVrKPp-QHFrH-125" edge="1">
          <mxGeometry relative="1" as="geometry">
            <mxPoint x="270" y="720" as="targetPoint" />
            <Array as="points">
              <mxPoint x="120" y="720" />
            </Array>
          </mxGeometry>
        </mxCell>
        <mxCell id="rQkRtYJSGVrKPp-QHFrH-125" value="&lt;u&gt;Cart_Item_ID&lt;/u&gt;" style="ellipse;whiteSpace=wrap;html=1;fontStyle=1;fillColor=#d0cee2;strokeColor=#56517e;fontSize=20;" parent="1" vertex="1">
          <mxGeometry x="40" y="614.09" width="170" height="55.91" as="geometry" />
        </mxCell>
        <mxCell id="rQkRtYJSGVrKPp-QHFrH-128" value="Product_ID" style="ellipse;whiteSpace=wrap;html=1;fontStyle=1;fillColor=#d0cee2;strokeColor=#56517e;fontSize=20;" parent="1" vertex="1">
          <mxGeometry x="380" y="580" width="150" height="59.5" as="geometry" />
        </mxCell>
        <mxCell id="rQkRtYJSGVrKPp-QHFrH-129" value="Cart_ID" style="ellipse;whiteSpace=wrap;html=1;fontStyle=1;fillColor=#d0cee2;strokeColor=#56517e;fontSize=20;" parent="1" vertex="1">
          <mxGeometry x="210" y="580" width="160" height="59.5" as="geometry" />
        </mxCell>
        <mxCell id="rQkRtYJSGVrKPp-QHFrH-132" style="edgeStyle=orthogonalEdgeStyle;rounded=0;orthogonalLoop=1;jettySize=auto;html=1;exitX=0.5;exitY=1;exitDx=0;exitDy=0;" parent="1" source="rQkRtYJSGVrKPp-QHFrH-128" edge="1">
          <mxGeometry relative="1" as="geometry">
            <mxPoint x="390" y="709.5" as="targetPoint" />
          </mxGeometry>
        </mxCell>
        <mxCell id="rQkRtYJSGVrKPp-QHFrH-133" style="edgeStyle=orthogonalEdgeStyle;rounded=0;orthogonalLoop=1;jettySize=auto;html=1;exitX=0.5;exitY=1;exitDx=0;exitDy=0;entryX=0.365;entryY=-0.01;entryDx=0;entryDy=0;entryPerimeter=0;" parent="1" source="rQkRtYJSGVrKPp-QHFrH-129" target="rQkRtYJSGVrKPp-QHFrH-122" edge="1">
          <mxGeometry relative="1" as="geometry" />
        </mxCell>
        <mxCell id="rQkRtYJSGVrKPp-QHFrH-148" value="Customer_Address" style="rounded=0;whiteSpace=wrap;html=1;fontFamily=gadugi;fillColor=#ffe6cc;strokeColor=light-dark(#fe3496, #996500);fontSize=23;fontStyle=1" parent="1" vertex="1">
          <mxGeometry x="50" y="-853" width="230" height="73" as="geometry" />
        </mxCell>
        <mxCell id="rQkRtYJSGVrKPp-QHFrH-149" style="edgeStyle=orthogonalEdgeStyle;rounded=0;orthogonalLoop=1;jettySize=auto;html=1;exitX=0.5;exitY=1;exitDx=0;exitDy=0;" parent="1" source="rQkRtYJSGVrKPp-QHFrH-148" target="rQkRtYJSGVrKPp-QHFrH-148" edge="1">
          <mxGeometry relative="1" as="geometry" />
        </mxCell>
        <mxCell id="yJHCzrc06ZQvmD5bulq7-8" style="edgeStyle=orthogonalEdgeStyle;rounded=0;orthogonalLoop=1;jettySize=auto;html=1;exitX=0.5;exitY=1;exitDx=0;exitDy=0;entryX=0;entryY=0.25;entryDx=0;entryDy=0;" parent="1" source="rQkRtYJSGVrKPp-QHFrH-151" target="rQkRtYJSGVrKPp-QHFrH-148" edge="1">
          <mxGeometry relative="1" as="geometry">
            <Array as="points">
              <mxPoint x="-100" y="-833" />
              <mxPoint x="40" y="-833" />
              <mxPoint x="40" y="-835" />
            </Array>
          </mxGeometry>
        </mxCell>
        <mxCell id="rQkRtYJSGVrKPp-QHFrH-151" value="&lt;u&gt;Address_ID&lt;/u&gt;" style="ellipse;whiteSpace=wrap;html=1;fontStyle=1;fillColor=#d0cee2;strokeColor=#56517e;direction=west;fontSize=20;" parent="1" vertex="1">
          <mxGeometry x="-200" y="-893" width="180" height="43" as="geometry" />
        </mxCell>
        <mxCell id="rQkRtYJSGVrKPp-QHFrH-152" style="edgeStyle=orthogonalEdgeStyle;rounded=0;orthogonalLoop=1;jettySize=auto;html=1;exitX=0.5;exitY=1;exitDx=0;exitDy=0;" parent="1" source="rQkRtYJSGVrKPp-QHFrH-153" target="rQkRtYJSGVrKPp-QHFrH-148" edge="1">
          <mxGeometry relative="1" as="geometry">
            <Array as="points">
              <mxPoint x="460" y="-853" />
              <mxPoint x="460" y="-843" />
            </Array>
          </mxGeometry>
        </mxCell>
        <mxCell id="rQkRtYJSGVrKPp-QHFrH-153" value="Customer_ID" style="ellipse;whiteSpace=wrap;html=1;fontStyle=1;fillColor=#d0cee2;strokeColor=#56517e;fontSize=20;" parent="1" vertex="1">
          <mxGeometry x="390" y="-896" width="150" height="43" as="geometry" />
        </mxCell>
        <mxCell id="rQkRtYJSGVrKPp-QHFrH-154" value="Postal_Code" style="ellipse;whiteSpace=wrap;html=1;fontStyle=1;fillColor=#d0cee2;strokeColor=#56517e;fontSize=20;" parent="1" vertex="1">
          <mxGeometry x="300" y="-940" width="150" height="40" as="geometry" />
        </mxCell>
        <mxCell id="rQkRtYJSGVrKPp-QHFrH-155" value="Full_Address" style="ellipse;whiteSpace=wrap;html=1;fontStyle=1;fillColor=#d0cee2;strokeColor=#56517e;fontSize=20;" parent="1" vertex="1">
          <mxGeometry x="-100" y="-940" width="160" height="40" as="geometry" />
        </mxCell>
        <mxCell id="rQkRtYJSGVrKPp-QHFrH-156" style="edgeStyle=orthogonalEdgeStyle;rounded=0;orthogonalLoop=1;jettySize=auto;html=1;exitX=0.5;exitY=1;exitDx=0;exitDy=0;" parent="1" source="rQkRtYJSGVrKPp-QHFrH-157" target="rQkRtYJSGVrKPp-QHFrH-148" edge="1">
          <mxGeometry relative="1" as="geometry">
            <mxPoint x="160" y="-893" as="sourcePoint" />
          </mxGeometry>
        </mxCell>
        <mxCell id="rQkRtYJSGVrKPp-QHFrH-157" value="City_corporation" style="ellipse;whiteSpace=wrap;html=1;fontStyle=1;fillColor=#d0cee2;strokeColor=#56517e;fontSize=20;" parent="1" vertex="1">
          <mxGeometry x="-15" y="-990" width="185" height="50" as="geometry" />
        </mxCell>
        <mxCell id="rQkRtYJSGVrKPp-QHFrH-158" style="edgeStyle=orthogonalEdgeStyle;rounded=0;orthogonalLoop=1;jettySize=auto;html=1;exitX=0.5;exitY=1;exitDx=0;exitDy=0;" parent="1" source="rQkRtYJSGVrKPp-QHFrH-154" edge="1">
          <mxGeometry relative="1" as="geometry">
            <mxPoint x="180" y="-853" as="targetPoint" />
          </mxGeometry>
        </mxCell>
        <mxCell id="rQkRtYJSGVrKPp-QHFrH-159" style="edgeStyle=orthogonalEdgeStyle;rounded=0;orthogonalLoop=1;jettySize=auto;html=1;exitX=0.5;exitY=1;exitDx=0;exitDy=0;entryX=0.365;entryY=-0.01;entryDx=0;entryDy=0;entryPerimeter=0;" parent="1" source="rQkRtYJSGVrKPp-QHFrH-155" target="rQkRtYJSGVrKPp-QHFrH-148" edge="1">
          <mxGeometry relative="1" as="geometry" />
        </mxCell>
        <mxCell id="rQkRtYJSGVrKPp-QHFrH-161" value="Upazila" style="ellipse;whiteSpace=wrap;html=1;fontStyle=1;fillColor=#d0cee2;strokeColor=#56517e;fontSize=20;" parent="1" vertex="1">
          <mxGeometry x="180" y="-990" width="180" height="50" as="geometry" />
        </mxCell>
        <mxCell id="rQkRtYJSGVrKPp-QHFrH-165" style="edgeStyle=orthogonalEdgeStyle;rounded=0;orthogonalLoop=1;jettySize=auto;html=1;exitX=0.5;exitY=1;exitDx=0;exitDy=0;" parent="1" source="rQkRtYJSGVrKPp-QHFrH-153" target="rQkRtYJSGVrKPp-QHFrH-153" edge="1">
          <mxGeometry relative="1" as="geometry" />
        </mxCell>
        <mxCell id="rQkRtYJSGVrKPp-QHFrH-180" value="Orders" style="rounded=0;whiteSpace=wrap;html=1;fontFamily=gadugi;fillColor=#ffe6cc;strokeColor=light-dark(#fe3496, #996500);fontSize=23;fontStyle=1" parent="1" vertex="1">
          <mxGeometry x="-20" y="-230" width="170" height="70" as="geometry" />
        </mxCell>
        <mxCell id="rQkRtYJSGVrKPp-QHFrH-181" style="edgeStyle=orthogonalEdgeStyle;rounded=0;orthogonalLoop=1;jettySize=auto;html=1;exitX=0.5;exitY=1;exitDx=0;exitDy=0;" parent="1" source="rQkRtYJSGVrKPp-QHFrH-180" target="rQkRtYJSGVrKPp-QHFrH-180" edge="1">
          <mxGeometry relative="1" as="geometry" />
        </mxCell>
        <mxCell id="rQkRtYJSGVrKPp-QHFrH-182" style="edgeStyle=orthogonalEdgeStyle;rounded=0;orthogonalLoop=1;jettySize=auto;html=1;exitX=0.5;exitY=1;exitDx=0;exitDy=0;" parent="1" source="rQkRtYJSGVrKPp-QHFrH-183" edge="1">
          <mxGeometry relative="1" as="geometry">
            <mxPoint x="-20" y="-222" as="targetPoint" />
            <Array as="points">
              <mxPoint x="-110" y="-222.07" />
              <mxPoint y="-222.07" />
            </Array>
          </mxGeometry>
        </mxCell>
        <mxCell id="rQkRtYJSGVrKPp-QHFrH-183" value="&lt;u&gt;Order_ID&lt;/u&gt;" style="ellipse;whiteSpace=wrap;html=1;fontStyle=1;fillColor=#d0cee2;strokeColor=#56517e;direction=west;fontSize=20;" parent="1" vertex="1">
          <mxGeometry x="-300" y="-280" width="160" height="47.93" as="geometry" />
        </mxCell>
        <mxCell id="rQkRtYJSGVrKPp-QHFrH-184" style="edgeStyle=orthogonalEdgeStyle;rounded=0;orthogonalLoop=1;jettySize=auto;html=1;exitX=0.5;exitY=1;exitDx=0;exitDy=0;" parent="1" source="rQkRtYJSGVrKPp-QHFrH-185" target="rQkRtYJSGVrKPp-QHFrH-180" edge="1">
          <mxGeometry relative="1" as="geometry">
            <Array as="points">
              <mxPoint x="340" y="-232" />
              <mxPoint x="340" y="-222" />
            </Array>
          </mxGeometry>
        </mxCell>
        <mxCell id="rQkRtYJSGVrKPp-QHFrH-185" value="Payment_ID" style="ellipse;whiteSpace=wrap;html=1;fontStyle=1;fillColor=#d0cee2;strokeColor=#56517e;fontSize=20;" parent="1" vertex="1">
          <mxGeometry x="260" y="-275.07" width="150" height="43" as="geometry" />
        </mxCell>
        <mxCell id="rQkRtYJSGVrKPp-QHFrH-186" value="Status" style="ellipse;whiteSpace=wrap;html=1;fontStyle=1;fillColor=#d0cee2;strokeColor=#56517e;fontSize=20;" parent="1" vertex="1">
          <mxGeometry x="160" y="-320" width="160" height="40.93" as="geometry" />
        </mxCell>
        <mxCell id="rQkRtYJSGVrKPp-QHFrH-187" value="User_ID" style="ellipse;whiteSpace=wrap;html=1;fontStyle=1;fillColor=#d0cee2;strokeColor=#56517e;fontSize=20;" parent="1" vertex="1">
          <mxGeometry x="-200" y="-320" width="150" height="40.93" as="geometry" />
        </mxCell>
        <mxCell id="rQkRtYJSGVrKPp-QHFrH-188" style="edgeStyle=orthogonalEdgeStyle;rounded=0;orthogonalLoop=1;jettySize=auto;html=1;exitX=0.5;exitY=1;exitDx=0;exitDy=0;" parent="1" source="rQkRtYJSGVrKPp-QHFrH-189" target="rQkRtYJSGVrKPp-QHFrH-180" edge="1">
          <mxGeometry relative="1" as="geometry">
            <mxPoint x="60" y="-272.07" as="sourcePoint" />
          </mxGeometry>
        </mxCell>
        <mxCell id="rQkRtYJSGVrKPp-QHFrH-189" value="Order_Date" style="ellipse;whiteSpace=wrap;html=1;fontStyle=1;fillColor=#d0cee2;strokeColor=#56517e;fontSize=20;" parent="1" vertex="1">
          <mxGeometry x="-110" y="-370" width="160" height="50.93" as="geometry" />
        </mxCell>
        <mxCell id="rQkRtYJSGVrKPp-QHFrH-190" style="edgeStyle=orthogonalEdgeStyle;rounded=0;orthogonalLoop=1;jettySize=auto;html=1;exitX=0.5;exitY=1;exitDx=0;exitDy=0;" parent="1" source="rQkRtYJSGVrKPp-QHFrH-186" edge="1">
          <mxGeometry relative="1" as="geometry">
            <mxPoint x="80" y="-232.07" as="targetPoint" />
          </mxGeometry>
        </mxCell>
        <mxCell id="rQkRtYJSGVrKPp-QHFrH-191" style="edgeStyle=orthogonalEdgeStyle;rounded=0;orthogonalLoop=1;jettySize=auto;html=1;exitX=0.5;exitY=1;exitDx=0;exitDy=0;entryX=0.365;entryY=-0.01;entryDx=0;entryDy=0;entryPerimeter=0;" parent="1" source="rQkRtYJSGVrKPp-QHFrH-187" target="rQkRtYJSGVrKPp-QHFrH-180" edge="1">
          <mxGeometry relative="1" as="geometry" />
        </mxCell>
        <mxCell id="rQkRtYJSGVrKPp-QHFrH-193" value="" style="edgeStyle=orthogonalEdgeStyle;rounded=0;orthogonalLoop=1;jettySize=auto;html=1;" parent="1" edge="1">
          <mxGeometry relative="1" as="geometry">
            <mxPoint x="130" y="-319.07" as="sourcePoint" />
            <mxPoint x="70" y="-232.07" as="targetPoint" />
            <Array as="points">
              <mxPoint x="130" y="-276.07" />
              <mxPoint x="70" y="-276.07" />
            </Array>
          </mxGeometry>
        </mxCell>
        <mxCell id="rQkRtYJSGVrKPp-QHFrH-194" value="Total_Amount" style="ellipse;whiteSpace=wrap;html=1;fontStyle=1;fillColor=#d0cee2;strokeColor=#56517e;fontSize=20;" parent="1" vertex="1">
          <mxGeometry x="60" y="-370" width="150" height="50.93" as="geometry" />
        </mxCell>
        <mxCell id="rQkRtYJSGVrKPp-QHFrH-195" style="edgeStyle=orthogonalEdgeStyle;rounded=0;orthogonalLoop=1;jettySize=auto;html=1;exitX=0.5;exitY=1;exitDx=0;exitDy=0;" parent="1" source="rQkRtYJSGVrKPp-QHFrH-185" target="rQkRtYJSGVrKPp-QHFrH-185" edge="1">
          <mxGeometry relative="1" as="geometry" />
        </mxCell>
        <mxCell id="rQkRtYJSGVrKPp-QHFrH-196" value="Payment" style="rounded=0;whiteSpace=wrap;html=1;fontFamily=gadugi;fillColor=#ffe6cc;strokeColor=light-dark(#fe3496, #996500);fontSize=23;fontStyle=1" parent="1" vertex="1">
          <mxGeometry x="-10" y="317.5" width="160" height="72.5" as="geometry" />
        </mxCell>
        <mxCell id="rQkRtYJSGVrKPp-QHFrH-197" style="edgeStyle=orthogonalEdgeStyle;rounded=0;orthogonalLoop=1;jettySize=auto;html=1;exitX=0.5;exitY=1;exitDx=0;exitDy=0;" parent="1" source="rQkRtYJSGVrKPp-QHFrH-196" target="rQkRtYJSGVrKPp-QHFrH-196" edge="1">
          <mxGeometry relative="1" as="geometry" />
        </mxCell>
        <mxCell id="rQkRtYJSGVrKPp-QHFrH-198" style="edgeStyle=orthogonalEdgeStyle;rounded=0;orthogonalLoop=1;jettySize=auto;html=1;exitX=0.5;exitY=1;exitDx=0;exitDy=0;entryX=0;entryY=0.25;entryDx=0;entryDy=0;" parent="1" source="rQkRtYJSGVrKPp-QHFrH-199" target="rQkRtYJSGVrKPp-QHFrH-196" edge="1">
          <mxGeometry relative="1" as="geometry">
            <mxPoint x="-20" y="328" as="targetPoint" />
            <Array as="points">
              <mxPoint x="-160" y="328" />
              <mxPoint x="-10" y="328" />
            </Array>
          </mxGeometry>
        </mxCell>
        <mxCell id="rQkRtYJSGVrKPp-QHFrH-199" value="&lt;u&gt;Payment_ID&lt;/u&gt;" style="ellipse;whiteSpace=wrap;html=1;fontStyle=1;fillColor=#d0cee2;strokeColor=#56517e;fontSize=20;direction=west;" parent="1" vertex="1">
          <mxGeometry x="-240" y="270" width="160" height="47.5" as="geometry" />
        </mxCell>
        <mxCell id="rQkRtYJSGVrKPp-QHFrH-200" style="edgeStyle=orthogonalEdgeStyle;rounded=0;orthogonalLoop=1;jettySize=auto;html=1;exitX=0.5;exitY=1;exitDx=0;exitDy=0;" parent="1" source="rQkRtYJSGVrKPp-QHFrH-201" target="rQkRtYJSGVrKPp-QHFrH-196" edge="1">
          <mxGeometry relative="1" as="geometry">
            <Array as="points">
              <mxPoint x="315" y="327" />
            </Array>
          </mxGeometry>
        </mxCell>
        <mxCell id="rQkRtYJSGVrKPp-QHFrH-201" value="Amount_Paid" style="ellipse;whiteSpace=wrap;html=1;fontStyle=1;fillColor=#d0cee2;strokeColor=#56517e;fontSize=20;" parent="1" vertex="1">
          <mxGeometry x="240" y="260" width="160" height="50" as="geometry" />
        </mxCell>
        <mxCell id="rQkRtYJSGVrKPp-QHFrH-202" value="Transaction_ID" style="ellipse;whiteSpace=wrap;html=1;fontStyle=1;fillColor=#d0cee2;strokeColor=#56517e;fontSize=20;" parent="1" vertex="1">
          <mxGeometry x="130" y="210" width="170" height="47.5" as="geometry" />
        </mxCell>
        <mxCell id="rQkRtYJSGVrKPp-QHFrH-203" value="Order_ID" style="ellipse;whiteSpace=wrap;html=1;fontStyle=1;fillColor=#d0cee2;strokeColor=#56517e;fontSize=20;" parent="1" vertex="1">
          <mxGeometry x="-160" y="210" width="170" height="47.5" as="geometry" />
        </mxCell>
        <mxCell id="rQkRtYJSGVrKPp-QHFrH-204" style="edgeStyle=orthogonalEdgeStyle;rounded=0;orthogonalLoop=1;jettySize=auto;html=1;exitX=0.5;exitY=1;exitDx=0;exitDy=0;" parent="1" target="rQkRtYJSGVrKPp-QHFrH-196" edge="1">
          <mxGeometry relative="1" as="geometry">
            <mxPoint x="70" y="237.50000000000023" as="sourcePoint" />
          </mxGeometry>
        </mxCell>
        <mxCell id="e_lPp5WETMrQ2OMcBh4P-4" style="edgeStyle=orthogonalEdgeStyle;rounded=0;orthogonalLoop=1;jettySize=auto;html=1;entryX=0.5;entryY=0;entryDx=0;entryDy=0;" edge="1" parent="1" source="rQkRtYJSGVrKPp-QHFrH-205" target="rQkRtYJSGVrKPp-QHFrH-196">
          <mxGeometry relative="1" as="geometry" />
        </mxCell>
        <mxCell id="rQkRtYJSGVrKPp-QHFrH-205" value="Payment_Method" style="ellipse;whiteSpace=wrap;html=1;fontStyle=1;fillColor=#d0cee2;strokeColor=#56517e;fontSize=20;" parent="1" vertex="1">
          <mxGeometry x="-20" y="170" width="180" height="50" as="geometry" />
        </mxCell>
        <mxCell id="rQkRtYJSGVrKPp-QHFrH-206" style="edgeStyle=orthogonalEdgeStyle;rounded=0;orthogonalLoop=1;jettySize=auto;html=1;exitX=0.5;exitY=1;exitDx=0;exitDy=0;" parent="1" source="rQkRtYJSGVrKPp-QHFrH-202" edge="1">
          <mxGeometry relative="1" as="geometry">
            <mxPoint x="90" y="317.5" as="targetPoint" />
          </mxGeometry>
        </mxCell>
        <mxCell id="rQkRtYJSGVrKPp-QHFrH-207" style="edgeStyle=orthogonalEdgeStyle;rounded=0;orthogonalLoop=1;jettySize=auto;html=1;exitX=0.5;exitY=1;exitDx=0;exitDy=0;entryX=0.365;entryY=-0.01;entryDx=0;entryDy=0;entryPerimeter=0;" parent="1" source="rQkRtYJSGVrKPp-QHFrH-203" target="rQkRtYJSGVrKPp-QHFrH-196" edge="1">
          <mxGeometry relative="1" as="geometry" />
        </mxCell>
        <mxCell id="rQkRtYJSGVrKPp-QHFrH-219" value="Cart" style="rounded=0;whiteSpace=wrap;html=1;fontFamily=gadugi;fillColor=#ffe6cc;strokeColor=light-dark(#fe3496, #996500);fontSize=23;fontStyle=1" parent="1" vertex="1">
          <mxGeometry x="140" y="1122" width="160" height="78" as="geometry" />
        </mxCell>
        <mxCell id="rQkRtYJSGVrKPp-QHFrH-220" style="edgeStyle=orthogonalEdgeStyle;rounded=0;orthogonalLoop=1;jettySize=auto;html=1;exitX=0.5;exitY=1;exitDx=0;exitDy=0;" parent="1" source="rQkRtYJSGVrKPp-QHFrH-219" target="rQkRtYJSGVrKPp-QHFrH-219" edge="1">
          <mxGeometry relative="1" as="geometry" />
        </mxCell>
        <mxCell id="rQkRtYJSGVrKPp-QHFrH-233" style="edgeStyle=orthogonalEdgeStyle;rounded=0;orthogonalLoop=1;jettySize=auto;html=1;exitX=0.5;exitY=1;exitDx=0;exitDy=0;entryX=0.25;entryY=0;entryDx=0;entryDy=0;" parent="1" source="rQkRtYJSGVrKPp-QHFrH-222" target="rQkRtYJSGVrKPp-QHFrH-219" edge="1">
          <mxGeometry relative="1" as="geometry">
            <mxPoint x="190" y="1082" as="targetPoint" />
          </mxGeometry>
        </mxCell>
        <mxCell id="rQkRtYJSGVrKPp-QHFrH-222" value="Cart_ID" style="ellipse;whiteSpace=wrap;html=1;fontStyle=1;fillColor=#d0cee2;strokeColor=#56517e;fontSize=20;" parent="1" vertex="1">
          <mxGeometry x="10" y="1000" width="170" height="62" as="geometry" />
        </mxCell>
        <mxCell id="rQkRtYJSGVrKPp-QHFrH-234" style="edgeStyle=orthogonalEdgeStyle;rounded=0;orthogonalLoop=1;jettySize=auto;html=1;exitX=0.5;exitY=1;exitDx=0;exitDy=0;entryX=0.75;entryY=0;entryDx=0;entryDy=0;" parent="1" source="rQkRtYJSGVrKPp-QHFrH-224" target="rQkRtYJSGVrKPp-QHFrH-219" edge="1">
          <mxGeometry relative="1" as="geometry" />
        </mxCell>
        <mxCell id="rQkRtYJSGVrKPp-QHFrH-224" value="Customer_ID" style="ellipse;whiteSpace=wrap;html=1;fontStyle=1;fillColor=#d0cee2;strokeColor=#56517e;fontSize=20;" parent="1" vertex="1">
          <mxGeometry x="260" y="1000" width="160" height="62" as="geometry" />
        </mxCell>
        <mxCell id="rQkRtYJSGVrKPp-QHFrH-231" style="edgeStyle=orthogonalEdgeStyle;rounded=0;orthogonalLoop=1;jettySize=auto;html=1;exitX=0.5;exitY=1;exitDx=0;exitDy=0;entryX=1;entryY=0.25;entryDx=0;entryDy=0;" parent="1" source="rQkRtYJSGVrKPp-QHFrH-229" target="rQkRtYJSGVrKPp-QHFrH-122" edge="1">
          <mxGeometry relative="1" as="geometry" />
        </mxCell>
        <mxCell id="rQkRtYJSGVrKPp-QHFrH-229" value="Quantity" style="ellipse;whiteSpace=wrap;html=1;fontStyle=1;fillColor=#d0cee2;strokeColor=#56517e;fontSize=20;" parent="1" vertex="1">
          <mxGeometry x="540" y="610" width="160" height="52.04" as="geometry" />
        </mxCell>
        <mxCell id="rQkRtYJSGVrKPp-QHFrH-236" value="Product" style="rounded=0;whiteSpace=wrap;html=1;fontFamily=gadugi;fillColor=#ffe6cc;strokeColor=light-dark(#fe3496, #996500);fontSize=23;fontStyle=1" parent="1" vertex="1">
          <mxGeometry x="660" y="176.51" width="170" height="73.49" as="geometry" />
        </mxCell>
        <mxCell id="rQkRtYJSGVrKPp-QHFrH-237" style="edgeStyle=orthogonalEdgeStyle;rounded=0;orthogonalLoop=1;jettySize=auto;html=1;exitX=0.5;exitY=1;exitDx=0;exitDy=0;" parent="1" source="rQkRtYJSGVrKPp-QHFrH-236" target="rQkRtYJSGVrKPp-QHFrH-236" edge="1">
          <mxGeometry relative="1" as="geometry" />
        </mxCell>
        <mxCell id="rQkRtYJSGVrKPp-QHFrH-238" style="edgeStyle=orthogonalEdgeStyle;rounded=0;orthogonalLoop=1;jettySize=auto;html=1;exitX=0.5;exitY=1;exitDx=0;exitDy=0;" parent="1" source="rQkRtYJSGVrKPp-QHFrH-239" edge="1">
          <mxGeometry relative="1" as="geometry">
            <mxPoint x="650" y="180" as="targetPoint" />
            <Array as="points">
              <mxPoint x="570" y="186.51" />
              <mxPoint x="680" y="186.51" />
            </Array>
          </mxGeometry>
        </mxCell>
        <mxCell id="rQkRtYJSGVrKPp-QHFrH-239" value="&lt;u&gt;Product_ID&lt;/u&gt;" style="ellipse;whiteSpace=wrap;html=1;fontStyle=1;fillColor=#d0cee2;strokeColor=#56517e;fontSize=20;" parent="1" vertex="1">
          <mxGeometry x="300" y="110" width="180" height="48.18" as="geometry" />
        </mxCell>
        <mxCell id="rQkRtYJSGVrKPp-QHFrH-240" style="edgeStyle=orthogonalEdgeStyle;rounded=0;orthogonalLoop=1;jettySize=auto;html=1;exitX=0.5;exitY=1;exitDx=0;exitDy=0;" parent="1" source="rQkRtYJSGVrKPp-QHFrH-241" target="rQkRtYJSGVrKPp-QHFrH-236" edge="1">
          <mxGeometry relative="1" as="geometry">
            <Array as="points">
              <mxPoint x="1070" y="190" />
              <mxPoint x="1070" y="190" />
            </Array>
          </mxGeometry>
        </mxCell>
        <mxCell id="rQkRtYJSGVrKPp-QHFrH-241" value="Is_Active" style="ellipse;whiteSpace=wrap;html=1;fontStyle=1;fillColor=#d0cee2;strokeColor=#56517e;fontSize=20;" parent="1" vertex="1">
          <mxGeometry x="1010" y="136.51" width="140" height="40" as="geometry" />
        </mxCell>
        <mxCell id="rQkRtYJSGVrKPp-QHFrH-242" value="Stock_Quantity" style="ellipse;whiteSpace=wrap;html=1;fontStyle=1;fillColor=#d0cee2;strokeColor=#56517e;fontSize=20;" parent="1" vertex="1">
          <mxGeometry x="950" y="50" width="170" height="48.18" as="geometry" />
        </mxCell>
        <mxCell id="rQkRtYJSGVrKPp-QHFrH-243" value="Product_Name" style="ellipse;whiteSpace=wrap;html=1;fontStyle=1;fillColor=#d0cee2;strokeColor=#56517e;fontSize=20;" parent="1" vertex="1">
          <mxGeometry x="400" y="60" width="180" height="48.18" as="geometry" />
        </mxCell>
        <mxCell id="rQkRtYJSGVrKPp-QHFrH-244" style="edgeStyle=orthogonalEdgeStyle;rounded=0;orthogonalLoop=1;jettySize=auto;html=1;exitX=0.5;exitY=1;exitDx=0;exitDy=0;" parent="1" source="rQkRtYJSGVrKPp-QHFrH-245" target="rQkRtYJSGVrKPp-QHFrH-236" edge="1">
          <mxGeometry relative="1" as="geometry">
            <mxPoint x="740" y="136.51" as="sourcePoint" />
            <Array as="points">
              <mxPoint x="590" y="117.18" />
              <mxPoint x="730" y="117.18" />
            </Array>
          </mxGeometry>
        </mxCell>
        <mxCell id="rQkRtYJSGVrKPp-QHFrH-245" value="Product_Price" style="ellipse;whiteSpace=wrap;html=1;fontStyle=1;fillColor=#d0cee2;strokeColor=#56517e;fontSize=20;" parent="1" vertex="1">
          <mxGeometry x="505" y="10" width="160" height="48.18" as="geometry" />
        </mxCell>
        <mxCell id="rQkRtYJSGVrKPp-QHFrH-246" style="edgeStyle=orthogonalEdgeStyle;rounded=0;orthogonalLoop=1;jettySize=auto;html=1;exitX=0.5;exitY=1;exitDx=0;exitDy=0;entryX=0.75;entryY=0;entryDx=0;entryDy=0;" parent="1" source="rQkRtYJSGVrKPp-QHFrH-242" target="rQkRtYJSGVrKPp-QHFrH-236" edge="1">
          <mxGeometry relative="1" as="geometry">
            <mxPoint x="770" y="168.18" as="targetPoint" />
          </mxGeometry>
        </mxCell>
        <mxCell id="rQkRtYJSGVrKPp-QHFrH-247" style="edgeStyle=orthogonalEdgeStyle;rounded=0;orthogonalLoop=1;jettySize=auto;html=1;exitX=0.5;exitY=1;exitDx=0;exitDy=0;entryX=0.365;entryY=-0.01;entryDx=0;entryDy=0;entryPerimeter=0;" parent="1" source="rQkRtYJSGVrKPp-QHFrH-243" target="rQkRtYJSGVrKPp-QHFrH-236" edge="1">
          <mxGeometry relative="1" as="geometry" />
        </mxCell>
        <mxCell id="rQkRtYJSGVrKPp-QHFrH-251" style="edgeStyle=orthogonalEdgeStyle;rounded=0;orthogonalLoop=1;jettySize=auto;html=1;exitX=0.5;exitY=1;exitDx=0;exitDy=0;entryX=0.603;entryY=0.067;entryDx=0;entryDy=0;entryPerimeter=0;" parent="1" source="rQkRtYJSGVrKPp-QHFrH-249" target="rQkRtYJSGVrKPp-QHFrH-236" edge="1">
          <mxGeometry relative="1" as="geometry">
            <mxPoint x="810" y="98.18" as="targetPoint" />
            <Array as="points">
              <mxPoint x="920" y="117" />
              <mxPoint x="762" y="117" />
            </Array>
          </mxGeometry>
        </mxCell>
        <mxCell id="rQkRtYJSGVrKPp-QHFrH-249" value="Image" style="ellipse;whiteSpace=wrap;html=1;fontStyle=1;fillColor=#d0cee2;strokeColor=#56517e;fontSize=20;" parent="1" vertex="1">
          <mxGeometry x="840" y="10" width="160" height="40" as="geometry" />
        </mxCell>
        <mxCell id="rQkRtYJSGVrKPp-QHFrH-250" style="edgeStyle=orthogonalEdgeStyle;rounded=0;orthogonalLoop=1;jettySize=auto;html=1;exitX=0.5;exitY=1;exitDx=0;exitDy=0;" parent="1" source="rQkRtYJSGVrKPp-QHFrH-241" target="rQkRtYJSGVrKPp-QHFrH-241" edge="1">
          <mxGeometry relative="1" as="geometry" />
        </mxCell>
        <mxCell id="rQkRtYJSGVrKPp-QHFrH-254" style="edgeStyle=orthogonalEdgeStyle;rounded=0;orthogonalLoop=1;jettySize=auto;html=1;exitX=0.5;exitY=1;exitDx=0;exitDy=0;" parent="1" source="rQkRtYJSGVrKPp-QHFrH-252" edge="1">
          <mxGeometry relative="1" as="geometry">
            <mxPoint x="740" y="178.18" as="targetPoint" />
          </mxGeometry>
        </mxCell>
        <mxCell id="rQkRtYJSGVrKPp-QHFrH-252" value="Description" style="ellipse;whiteSpace=wrap;html=1;fontStyle=1;fillColor=#d0cee2;strokeColor=#56517e;fontSize=20;" parent="1" vertex="1">
          <mxGeometry x="590" y="-40" width="150" height="45.68" as="geometry" />
        </mxCell>
        <mxCell id="rQkRtYJSGVrKPp-QHFrH-255" style="edgeStyle=orthogonalEdgeStyle;rounded=0;orthogonalLoop=1;jettySize=auto;html=1;exitX=0.5;exitY=1;exitDx=0;exitDy=0;" parent="1" source="rQkRtYJSGVrKPp-QHFrH-253" edge="1">
          <mxGeometry relative="1" as="geometry">
            <mxPoint x="750" y="178.18" as="targetPoint" />
          </mxGeometry>
        </mxCell>
        <mxCell id="rQkRtYJSGVrKPp-QHFrH-253" value="Category_ID" style="ellipse;whiteSpace=wrap;html=1;fontStyle=1;fillColor=#d0cee2;strokeColor=#56517e;fontSize=20;" parent="1" vertex="1">
          <mxGeometry x="750" y="-40" width="150" height="45.68" as="geometry" />
        </mxCell>
        <mxCell id="rQkRtYJSGVrKPp-QHFrH-275" value="Rider" style="rounded=0;whiteSpace=wrap;html=1;fontFamily=gadugi;fillColor=#ffe6cc;strokeColor=light-dark(#fe3496, #996500);fontSize=23;fontStyle=1" parent="1" vertex="1">
          <mxGeometry x="-690" y="1408.33" width="220" height="71.67" as="geometry" />
        </mxCell>
        <mxCell id="rQkRtYJSGVrKPp-QHFrH-276" style="edgeStyle=orthogonalEdgeStyle;rounded=0;orthogonalLoop=1;jettySize=auto;html=1;exitX=0.5;exitY=1;exitDx=0;exitDy=0;" parent="1" source="rQkRtYJSGVrKPp-QHFrH-275" target="rQkRtYJSGVrKPp-QHFrH-275" edge="1">
          <mxGeometry relative="1" as="geometry" />
        </mxCell>
        <mxCell id="rQkRtYJSGVrKPp-QHFrH-277" style="edgeStyle=orthogonalEdgeStyle;rounded=0;orthogonalLoop=1;jettySize=auto;html=1;exitX=0.5;exitY=1;exitDx=0;exitDy=0;" parent="1" source="rQkRtYJSGVrKPp-QHFrH-278" edge="1">
          <mxGeometry relative="1" as="geometry">
            <mxPoint x="-690" y="1418" as="targetPoint" />
            <Array as="points">
              <mxPoint x="-749" y="1418.33" />
              <mxPoint x="-639" y="1418.33" />
            </Array>
          </mxGeometry>
        </mxCell>
        <mxCell id="rQkRtYJSGVrKPp-QHFrH-278" value="&lt;u&gt;Rider_ID&lt;/u&gt;" style="ellipse;whiteSpace=wrap;html=1;fontStyle=1;fillColor=#d0cee2;strokeColor=#56517e;fontSize=20;" parent="1" vertex="1">
          <mxGeometry x="-970" y="1330" width="130" height="60" as="geometry" />
        </mxCell>
        <mxCell id="rQkRtYJSGVrKPp-QHFrH-279" style="edgeStyle=orthogonalEdgeStyle;rounded=0;orthogonalLoop=1;jettySize=auto;html=1;exitX=0.5;exitY=1;exitDx=0;exitDy=0;" parent="1" source="rQkRtYJSGVrKPp-QHFrH-280" target="rQkRtYJSGVrKPp-QHFrH-275" edge="1">
          <mxGeometry relative="1" as="geometry">
            <Array as="points">
              <mxPoint x="-240" y="1418" />
            </Array>
          </mxGeometry>
        </mxCell>
        <mxCell id="rQkRtYJSGVrKPp-QHFrH-280" value="Password" style="ellipse;whiteSpace=wrap;html=1;fontStyle=1;fillColor=#d0cee2;strokeColor=#56517e;fontSize=20;" parent="1" vertex="1">
          <mxGeometry x="-310" y="1330.66" width="140" height="59.34" as="geometry" />
        </mxCell>
        <mxCell id="rQkRtYJSGVrKPp-QHFrH-281" value="Max_Delivery" style="ellipse;whiteSpace=wrap;html=1;fontStyle=1;fillColor=#d0cee2;strokeColor=#56517e;fontSize=20;" parent="1" vertex="1">
          <mxGeometry x="-400" y="1260" width="150" height="60" as="geometry" />
        </mxCell>
        <mxCell id="rQkRtYJSGVrKPp-QHFrH-282" value="Rider_Name" style="ellipse;whiteSpace=wrap;html=1;fontStyle=1;fillColor=#d0cee2;strokeColor=#56517e;fontSize=20;" parent="1" vertex="1">
          <mxGeometry x="-900" y="1270" width="146" height="60" as="geometry" />
        </mxCell>
        <mxCell id="rQkRtYJSGVrKPp-QHFrH-284" value="Rider_Email" style="ellipse;whiteSpace=wrap;html=1;fontStyle=1;fillColor=#d0cee2;strokeColor=#56517e;fontSize=20;" parent="1" vertex="1">
          <mxGeometry x="-810" y="1210" width="146" height="60" as="geometry" />
        </mxCell>
        <mxCell id="rQkRtYJSGVrKPp-QHFrH-285" style="edgeStyle=orthogonalEdgeStyle;rounded=0;orthogonalLoop=1;jettySize=auto;html=1;exitX=0.5;exitY=1;exitDx=0;exitDy=0;entryX=0.75;entryY=0;entryDx=0;entryDy=0;" parent="1" source="rQkRtYJSGVrKPp-QHFrH-281" target="rQkRtYJSGVrKPp-QHFrH-275" edge="1">
          <mxGeometry relative="1" as="geometry">
            <mxPoint x="-549" y="1400" as="targetPoint" />
          </mxGeometry>
        </mxCell>
        <mxCell id="rQkRtYJSGVrKPp-QHFrH-286" style="edgeStyle=orthogonalEdgeStyle;rounded=0;orthogonalLoop=1;jettySize=auto;html=1;exitX=0.5;exitY=1;exitDx=0;exitDy=0;entryX=0.365;entryY=-0.01;entryDx=0;entryDy=0;entryPerimeter=0;" parent="1" source="rQkRtYJSGVrKPp-QHFrH-282" target="rQkRtYJSGVrKPp-QHFrH-275" edge="1">
          <mxGeometry relative="1" as="geometry" />
        </mxCell>
        <mxCell id="rQkRtYJSGVrKPp-QHFrH-288" value="Active_status" style="ellipse;whiteSpace=wrap;html=1;fontStyle=1;fillColor=#d0cee2;strokeColor=#56517e;fontSize=20;" parent="1" vertex="1">
          <mxGeometry x="-514" y="1210" width="154" height="60" as="geometry" />
        </mxCell>
        <mxCell id="rQkRtYJSGVrKPp-QHFrH-289" style="edgeStyle=orthogonalEdgeStyle;rounded=0;orthogonalLoop=1;jettySize=auto;html=1;exitX=0.5;exitY=1;exitDx=0;exitDy=0;" parent="1" source="rQkRtYJSGVrKPp-QHFrH-280" target="rQkRtYJSGVrKPp-QHFrH-280" edge="1">
          <mxGeometry relative="1" as="geometry" />
        </mxCell>
        <mxCell id="rQkRtYJSGVrKPp-QHFrH-294" style="edgeStyle=orthogonalEdgeStyle;rounded=0;orthogonalLoop=1;jettySize=auto;html=1;exitX=0.5;exitY=1;exitDx=0;exitDy=0;entryX=0.642;entryY=0.067;entryDx=0;entryDy=0;entryPerimeter=0;" parent="1" source="rQkRtYJSGVrKPp-QHFrH-288" target="rQkRtYJSGVrKPp-QHFrH-275" edge="1">
          <mxGeometry relative="1" as="geometry" />
        </mxCell>
        <mxCell id="rQkRtYJSGVrKPp-QHFrH-296" style="edgeStyle=orthogonalEdgeStyle;rounded=0;orthogonalLoop=1;jettySize=auto;html=1;exitX=0.5;exitY=1;exitDx=0;exitDy=0;entryX=0.5;entryY=0;entryDx=0;entryDy=0;" parent="1" source="rQkRtYJSGVrKPp-QHFrH-295" target="rQkRtYJSGVrKPp-QHFrH-275" edge="1">
          <mxGeometry relative="1" as="geometry" />
        </mxCell>
        <mxCell id="rQkRtYJSGVrKPp-QHFrH-295" value="Rider_Phone" style="ellipse;whiteSpace=wrap;html=1;fontStyle=1;fillColor=#d0cee2;strokeColor=#56517e;fontSize=20;" parent="1" vertex="1">
          <mxGeometry x="-670" y="1160" width="180" height="60" as="geometry" />
        </mxCell>
        <mxCell id="rQkRtYJSGVrKPp-QHFrH-297" value="Rider_Preferred_Area" style="rounded=0;whiteSpace=wrap;html=1;fontFamily=gadugi;fillColor=#ffe6cc;strokeColor=light-dark(#fe3496, #996500);fontSize=23;fontStyle=1" parent="1" vertex="1">
          <mxGeometry x="560" y="1387.33" width="360" height="82.67" as="geometry" />
        </mxCell>
        <mxCell id="rQkRtYJSGVrKPp-QHFrH-298" style="edgeStyle=orthogonalEdgeStyle;rounded=0;orthogonalLoop=1;jettySize=auto;html=1;exitX=0.5;exitY=1;exitDx=0;exitDy=0;" parent="1" source="rQkRtYJSGVrKPp-QHFrH-297" target="rQkRtYJSGVrKPp-QHFrH-297" edge="1">
          <mxGeometry relative="1" as="geometry" />
        </mxCell>
        <mxCell id="rQkRtYJSGVrKPp-QHFrH-299" style="edgeStyle=orthogonalEdgeStyle;rounded=0;orthogonalLoop=1;jettySize=auto;html=1;exitX=0.5;exitY=1;exitDx=0;exitDy=0;entryX=0.25;entryY=0;entryDx=0;entryDy=0;" parent="1" source="rQkRtYJSGVrKPp-QHFrH-300" target="rQkRtYJSGVrKPp-QHFrH-297" edge="1">
          <mxGeometry relative="1" as="geometry">
            <mxPoint x="710" y="1345.66" as="targetPoint" />
          </mxGeometry>
        </mxCell>
        <mxCell id="rQkRtYJSGVrKPp-QHFrH-300" value="Rider_ID" style="ellipse;whiteSpace=wrap;html=1;fontStyle=1;fillColor=#d0cee2;strokeColor=#56517e;fontSize=20;" parent="1" vertex="1">
          <mxGeometry x="490" y="1270" width="210" height="55.66" as="geometry" />
        </mxCell>
        <mxCell id="rQkRtYJSGVrKPp-QHFrH-301" style="edgeStyle=orthogonalEdgeStyle;rounded=0;orthogonalLoop=1;jettySize=auto;html=1;exitX=0.5;exitY=1;exitDx=0;exitDy=0;entryX=0.75;entryY=0;entryDx=0;entryDy=0;" parent="1" source="rQkRtYJSGVrKPp-QHFrH-302" target="rQkRtYJSGVrKPp-QHFrH-297" edge="1">
          <mxGeometry relative="1" as="geometry" />
        </mxCell>
        <mxCell id="rQkRtYJSGVrKPp-QHFrH-302" value="Upazila" style="ellipse;whiteSpace=wrap;html=1;fontStyle=1;fillColor=#d0cee2;strokeColor=#56517e;fontSize=20;" parent="1" vertex="1">
          <mxGeometry x="815" y="1270" width="195" height="55.66" as="geometry" />
        </mxCell>
        <mxCell id="rQkRtYJSGVrKPp-QHFrH-304" value="" style="edgeStyle=orthogonalEdgeStyle;rounded=0;orthogonalLoop=1;jettySize=auto;html=1;" parent="1" target="rQkRtYJSGVrKPp-QHFrH-297" edge="1">
          <mxGeometry relative="1" as="geometry">
            <mxPoint x="740" y="1279.0000000000005" as="sourcePoint" />
          </mxGeometry>
        </mxCell>
        <mxCell id="rQkRtYJSGVrKPp-QHFrH-303" value="City_Corporation" style="ellipse;whiteSpace=wrap;html=1;fontStyle=1;fillColor=#d0cee2;strokeColor=#56517e;fontSize=20;" parent="1" vertex="1">
          <mxGeometry x="640" y="1210" width="200" height="70" as="geometry" />
        </mxCell>
        <mxCell id="rQkRtYJSGVrKPp-QHFrH-306" value="" style="rounded=0;whiteSpace=wrap;html=1;opacity=20;strokeColor=#090909;strokeWidth=8;" parent="1" vertex="1">
          <mxGeometry x="540" y="1373.66" width="400" height="110" as="geometry" />
        </mxCell>
        <mxCell id="rQkRtYJSGVrKPp-QHFrH-308" value="First_Order_Discount" style="rounded=0;html=1;fontFamily=gadugi;fillColor=#ffe6cc;strokeColor=light-dark(#fe3496, #996500);fontSize=23;fontStyle=1;whiteSpace=wrap;" parent="1" vertex="1">
          <mxGeometry x="-940" y="340" width="330" height="100" as="geometry" />
        </mxCell>
        <mxCell id="rQkRtYJSGVrKPp-QHFrH-309" style="edgeStyle=orthogonalEdgeStyle;rounded=0;orthogonalLoop=1;jettySize=auto;html=1;exitX=0.5;exitY=1;exitDx=0;exitDy=0;" parent="1" source="rQkRtYJSGVrKPp-QHFrH-308" target="rQkRtYJSGVrKPp-QHFrH-308" edge="1">
          <mxGeometry relative="1" as="geometry" />
        </mxCell>
        <mxCell id="yJHCzrc06ZQvmD5bulq7-16" style="edgeStyle=orthogonalEdgeStyle;rounded=0;orthogonalLoop=1;jettySize=auto;html=1;exitX=0.5;exitY=1;exitDx=0;exitDy=0;entryX=0;entryY=0;entryDx=0;entryDy=0;" parent="1" source="rQkRtYJSGVrKPp-QHFrH-311" target="rQkRtYJSGVrKPp-QHFrH-308" edge="1">
          <mxGeometry relative="1" as="geometry" />
        </mxCell>
        <mxCell id="rQkRtYJSGVrKPp-QHFrH-311" value="&lt;u&gt;Customer_ID&lt;/u&gt;" style="ellipse;whiteSpace=wrap;html=1;fontStyle=1;fillColor=#d0cee2;strokeColor=#56517e;fontSize=20;" parent="1" vertex="1">
          <mxGeometry x="-1140" y="270" width="225" height="47.5" as="geometry" />
        </mxCell>
        <mxCell id="rQkRtYJSGVrKPp-QHFrH-312" value="Discount_Amount" style="ellipse;whiteSpace=wrap;html=1;fontStyle=1;fillColor=#d0cee2;strokeColor=#56517e;fontSize=20;" parent="1" vertex="1">
          <mxGeometry x="-790" y="220" width="210" height="50" as="geometry" />
        </mxCell>
        <mxCell id="rQkRtYJSGVrKPp-QHFrH-313" value="Is_Discount_Used" style="ellipse;whiteSpace=wrap;html=1;fontStyle=1;fillColor=#d0cee2;strokeColor=#56517e;fontSize=20;" parent="1" vertex="1">
          <mxGeometry x="-1010" y="220" width="220" height="50" as="geometry" />
        </mxCell>
        <mxCell id="rQkRtYJSGVrKPp-QHFrH-314" style="edgeStyle=orthogonalEdgeStyle;rounded=0;orthogonalLoop=1;jettySize=auto;html=1;exitX=0.5;exitY=1;exitDx=0;exitDy=0;" parent="1" source="rQkRtYJSGVrKPp-QHFrH-312" edge="1">
          <mxGeometry relative="1" as="geometry">
            <mxPoint x="-780" y="339.99999999999994" as="targetPoint" />
          </mxGeometry>
        </mxCell>
        <mxCell id="rQkRtYJSGVrKPp-QHFrH-315" style="edgeStyle=orthogonalEdgeStyle;rounded=0;orthogonalLoop=1;jettySize=auto;html=1;exitX=0.5;exitY=1;exitDx=0;exitDy=0;entryX=0.365;entryY=-0.01;entryDx=0;entryDy=0;entryPerimeter=0;" parent="1" source="rQkRtYJSGVrKPp-QHFrH-313" target="rQkRtYJSGVrKPp-QHFrH-308" edge="1">
          <mxGeometry relative="1" as="geometry" />
        </mxCell>
        <mxCell id="rQkRtYJSGVrKPp-QHFrH-317" value="Applied_On_Order_ID" style="ellipse;whiteSpace=wrap;html=1;fontStyle=1;fillColor=#d0cee2;strokeColor=#56517e;fontSize=20;" parent="1" vertex="1">
          <mxGeometry x="-664" y="270" width="230" height="47.5" as="geometry" />
        </mxCell>
        <mxCell id="rQkRtYJSGVrKPp-QHFrH-318" value="Category" style="rounded=0;whiteSpace=wrap;html=1;fontFamily=gadugi;fillColor=#ffe6cc;strokeColor=light-dark(#fe3496, #996500);fontSize=23;fontStyle=1" parent="1" vertex="1">
          <mxGeometry x="800" y="982" width="160" height="78" as="geometry" />
        </mxCell>
        <mxCell id="rQkRtYJSGVrKPp-QHFrH-319" style="edgeStyle=orthogonalEdgeStyle;rounded=0;orthogonalLoop=1;jettySize=auto;html=1;exitX=0.5;exitY=1;exitDx=0;exitDy=0;entryX=0.5;entryY=1;entryDx=0;entryDy=0;" parent="1" source="rQkRtYJSGVrKPp-QHFrH-318" target="rQkRtYJSGVrKPp-QHFrH-318" edge="1">
          <mxGeometry relative="1" as="geometry" />
        </mxCell>
        <mxCell id="rQkRtYJSGVrKPp-QHFrH-320" style="edgeStyle=orthogonalEdgeStyle;rounded=0;orthogonalLoop=1;jettySize=auto;html=1;exitX=0.5;exitY=1;exitDx=0;exitDy=0;entryX=0.25;entryY=0;entryDx=0;entryDy=0;" parent="1" source="rQkRtYJSGVrKPp-QHFrH-321" target="rQkRtYJSGVrKPp-QHFrH-318" edge="1">
          <mxGeometry relative="1" as="geometry">
            <mxPoint x="850" y="942" as="targetPoint" />
          </mxGeometry>
        </mxCell>
        <mxCell id="rQkRtYJSGVrKPp-QHFrH-321" value="&lt;u&gt;Category_ID&lt;/u&gt;" style="ellipse;whiteSpace=wrap;html=1;fontStyle=1;fillColor=#d0cee2;strokeColor=#56517e;fontSize=20;" parent="1" vertex="1">
          <mxGeometry x="650" y="860" width="190" height="62" as="geometry" />
        </mxCell>
        <mxCell id="rQkRtYJSGVrKPp-QHFrH-322" style="edgeStyle=orthogonalEdgeStyle;rounded=0;orthogonalLoop=1;jettySize=auto;html=1;exitX=0.5;exitY=1;exitDx=0;exitDy=0;entryX=0.75;entryY=0;entryDx=0;entryDy=0;" parent="1" source="rQkRtYJSGVrKPp-QHFrH-323" target="rQkRtYJSGVrKPp-QHFrH-318" edge="1">
          <mxGeometry relative="1" as="geometry" />
        </mxCell>
        <mxCell id="rQkRtYJSGVrKPp-QHFrH-323" value="Category_Name" style="ellipse;whiteSpace=wrap;html=1;fontStyle=1;fillColor=#d0cee2;strokeColor=#56517e;fontSize=20;" parent="1" vertex="1">
          <mxGeometry x="900" y="860" width="190" height="62" as="geometry" />
        </mxCell>
        <mxCell id="rQkRtYJSGVrKPp-QHFrH-324" value="Delivery" style="rounded=0;whiteSpace=wrap;html=1;fontFamily=gadugi;fillColor=#ffe6cc;strokeColor=light-dark(#fe3496, #996500);fontSize=23;fontStyle=1" parent="1" vertex="1">
          <mxGeometry x="-720" y="802.42" width="290" height="77.58" as="geometry" />
        </mxCell>
        <mxCell id="rQkRtYJSGVrKPp-QHFrH-325" style="edgeStyle=orthogonalEdgeStyle;rounded=0;orthogonalLoop=1;jettySize=auto;html=1;exitX=0.5;exitY=1;exitDx=0;exitDy=0;" parent="1" source="rQkRtYJSGVrKPp-QHFrH-324" target="rQkRtYJSGVrKPp-QHFrH-324" edge="1">
          <mxGeometry relative="1" as="geometry" />
        </mxCell>
        <mxCell id="rQkRtYJSGVrKPp-QHFrH-326" style="edgeStyle=orthogonalEdgeStyle;rounded=0;orthogonalLoop=1;jettySize=auto;html=1;exitX=0.5;exitY=1;exitDx=0;exitDy=0;" parent="1" source="rQkRtYJSGVrKPp-QHFrH-327" edge="1">
          <mxGeometry relative="1" as="geometry">
            <mxPoint x="-720" y="812" as="targetPoint" />
            <Array as="points">
              <mxPoint x="-745" y="812.42" />
              <mxPoint x="-635" y="812.42" />
            </Array>
          </mxGeometry>
        </mxCell>
        <mxCell id="rQkRtYJSGVrKPp-QHFrH-327" value="&lt;u&gt;Delivery_ID&lt;/u&gt;" style="ellipse;whiteSpace=wrap;html=1;fontStyle=1;fillColor=#d0cee2;strokeColor=#56517e;fontSize=20;" parent="1" vertex="1">
          <mxGeometry x="-1110" y="730" width="175" height="54.09" as="geometry" />
        </mxCell>
        <mxCell id="rQkRtYJSGVrKPp-QHFrH-328" style="edgeStyle=orthogonalEdgeStyle;rounded=0;orthogonalLoop=1;jettySize=auto;html=1;exitX=0.5;exitY=1;exitDx=0;exitDy=0;" parent="1" source="rQkRtYJSGVrKPp-QHFrH-329" target="rQkRtYJSGVrKPp-QHFrH-324" edge="1">
          <mxGeometry relative="1" as="geometry">
            <Array as="points">
              <mxPoint x="-140" y="812" />
            </Array>
          </mxGeometry>
        </mxCell>
        <mxCell id="rQkRtYJSGVrKPp-QHFrH-329" value="Tracking_Number" style="ellipse;whiteSpace=wrap;html=1;fontStyle=1;fillColor=#d0cee2;strokeColor=#56517e;fontSize=20;" parent="1" vertex="1">
          <mxGeometry x="-240" y="730" width="190" height="54.09" as="geometry" />
        </mxCell>
        <mxCell id="rQkRtYJSGVrKPp-QHFrH-330" value="Delivery_Status" style="ellipse;whiteSpace=wrap;html=1;fontStyle=1;fillColor=#d0cee2;strokeColor=#56517e;fontSize=20;" parent="1" vertex="1">
          <mxGeometry x="-340" y="680" width="180" height="50" as="geometry" />
        </mxCell>
        <mxCell id="rQkRtYJSGVrKPp-QHFrH-331" value="Order_ID" style="ellipse;whiteSpace=wrap;html=1;fontStyle=1;fillColor=#d0cee2;strokeColor=#56517e;fontSize=20;" parent="1" vertex="1">
          <mxGeometry x="-1010" y="680" width="190" height="50" as="geometry" />
        </mxCell>
        <mxCell id="rQkRtYJSGVrKPp-QHFrH-332" style="edgeStyle=orthogonalEdgeStyle;rounded=0;orthogonalLoop=1;jettySize=auto;html=1;exitX=0.5;exitY=1;exitDx=0;exitDy=0;" parent="1" source="rQkRtYJSGVrKPp-QHFrH-333" target="rQkRtYJSGVrKPp-QHFrH-324" edge="1">
          <mxGeometry relative="1" as="geometry">
            <mxPoint x="-575" y="762.42" as="sourcePoint" />
            <Array as="points">
              <mxPoint x="-725" y="743.09" />
              <mxPoint x="-585" y="743.09" />
            </Array>
          </mxGeometry>
        </mxCell>
        <mxCell id="rQkRtYJSGVrKPp-QHFrH-333" value="Actual_Delivery_date" style="ellipse;whiteSpace=wrap;html=1;fontStyle=1;fillColor=#d0cee2;strokeColor=#56517e;fontSize=20;" parent="1" vertex="1">
          <mxGeometry x="-890" y="620" width="265" height="64.09" as="geometry" />
        </mxCell>
        <mxCell id="rQkRtYJSGVrKPp-QHFrH-334" style="edgeStyle=orthogonalEdgeStyle;rounded=0;orthogonalLoop=1;jettySize=auto;html=1;exitX=0.5;exitY=1;exitDx=0;exitDy=0;entryX=0.75;entryY=0;entryDx=0;entryDy=0;" parent="1" source="rQkRtYJSGVrKPp-QHFrH-330" target="rQkRtYJSGVrKPp-QHFrH-324" edge="1">
          <mxGeometry relative="1" as="geometry">
            <mxPoint x="-545" y="794.09" as="targetPoint" />
          </mxGeometry>
        </mxCell>
        <mxCell id="rQkRtYJSGVrKPp-QHFrH-335" style="edgeStyle=orthogonalEdgeStyle;rounded=0;orthogonalLoop=1;jettySize=auto;html=1;exitX=0.5;exitY=1;exitDx=0;exitDy=0;entryX=0.365;entryY=-0.01;entryDx=0;entryDy=0;entryPerimeter=0;" parent="1" source="rQkRtYJSGVrKPp-QHFrH-331" target="rQkRtYJSGVrKPp-QHFrH-324" edge="1">
          <mxGeometry relative="1" as="geometry" />
        </mxCell>
        <mxCell id="rQkRtYJSGVrKPp-QHFrH-336" value="Estimated_Delivery_Date" style="ellipse;whiteSpace=wrap;html=1;fontStyle=1;fillColor=#d0cee2;strokeColor=#56517e;fontSize=20;" parent="1" vertex="1">
          <mxGeometry x="-525" y="620" width="275" height="64.09" as="geometry" />
        </mxCell>
        <mxCell id="rQkRtYJSGVrKPp-QHFrH-337" style="edgeStyle=orthogonalEdgeStyle;rounded=0;orthogonalLoop=1;jettySize=auto;html=1;exitX=0.5;exitY=1;exitDx=0;exitDy=0;" parent="1" source="rQkRtYJSGVrKPp-QHFrH-329" target="rQkRtYJSGVrKPp-QHFrH-329" edge="1">
          <mxGeometry relative="1" as="geometry" />
        </mxCell>
        <mxCell id="rQkRtYJSGVrKPp-QHFrH-338" style="edgeStyle=orthogonalEdgeStyle;rounded=0;orthogonalLoop=1;jettySize=auto;html=1;exitX=0.5;exitY=1;exitDx=0;exitDy=0;entryX=0.642;entryY=0.067;entryDx=0;entryDy=0;entryPerimeter=0;" parent="1" source="rQkRtYJSGVrKPp-QHFrH-336" target="rQkRtYJSGVrKPp-QHFrH-324" edge="1">
          <mxGeometry relative="1" as="geometry" />
        </mxCell>
        <mxCell id="rQkRtYJSGVrKPp-QHFrH-339" style="edgeStyle=orthogonalEdgeStyle;rounded=0;orthogonalLoop=1;jettySize=auto;html=1;exitX=0.5;exitY=1;exitDx=0;exitDy=0;entryX=0.5;entryY=0;entryDx=0;entryDy=0;" parent="1" source="rQkRtYJSGVrKPp-QHFrH-340" target="rQkRtYJSGVrKPp-QHFrH-324" edge="1">
          <mxGeometry relative="1" as="geometry" />
        </mxCell>
        <mxCell id="rQkRtYJSGVrKPp-QHFrH-340" value="Rider_ID" style="ellipse;whiteSpace=wrap;html=1;fontStyle=1;fillColor=#d0cee2;strokeColor=#56517e;fontSize=20;" parent="1" vertex="1">
          <mxGeometry x="-660" y="580" width="170" height="49.75" as="geometry" />
        </mxCell>
        <mxCell id="rQkRtYJSGVrKPp-QHFrH-341" value="Gift_Card_Transaction" style="rounded=0;whiteSpace=wrap;html=1;fontFamily=gadugi;fillColor=#ffe6cc;strokeColor=light-dark(#fe3496, #996500);fontSize=23;fontStyle=1" parent="1" vertex="1">
          <mxGeometry x="-1000" width="310" height="80" as="geometry" />
        </mxCell>
        <mxCell id="rQkRtYJSGVrKPp-QHFrH-342" style="edgeStyle=orthogonalEdgeStyle;rounded=0;orthogonalLoop=1;jettySize=auto;html=1;exitX=0.5;exitY=1;exitDx=0;exitDy=0;" parent="1" source="rQkRtYJSGVrKPp-QHFrH-341" target="rQkRtYJSGVrKPp-QHFrH-341" edge="1">
          <mxGeometry relative="1" as="geometry" />
        </mxCell>
        <mxCell id="rQkRtYJSGVrKPp-QHFrH-344" value="Transaction_ID" style="ellipse;whiteSpace=wrap;html=1;fontStyle=5;fillColor=#d0cee2;strokeColor=#56517e;fontSize=20;direction=west;" parent="1" vertex="1">
          <mxGeometry x="-1150" y="-80" width="170" height="45.68" as="geometry" />
        </mxCell>
        <mxCell id="rQkRtYJSGVrKPp-QHFrH-345" value="Order_ID" style="ellipse;whiteSpace=wrap;html=1;fontStyle=1;fillColor=#d0cee2;strokeColor=#56517e;fontSize=20;" parent="1" vertex="1">
          <mxGeometry x="-790" y="-140" width="180" height="48.68" as="geometry" />
        </mxCell>
        <mxCell id="rQkRtYJSGVrKPp-QHFrH-346" value="Gift_card_ID" style="ellipse;whiteSpace=wrap;html=1;fontStyle=1;fillColor=#d0cee2;strokeColor=#56517e;fontSize=20;" parent="1" vertex="1">
          <mxGeometry x="-1060" y="-140" width="170" height="48.68" as="geometry" />
        </mxCell>
        <mxCell id="rQkRtYJSGVrKPp-QHFrH-350" value="Amount_Used" style="ellipse;whiteSpace=wrap;html=1;fontStyle=1;fillColor=#d0cee2;strokeColor=#56517e;fontSize=20;" parent="1" vertex="1">
          <mxGeometry x="-664" y="-91.32" width="190" height="50" as="geometry" />
        </mxCell>
        <mxCell id="rQkRtYJSGVrKPp-QHFrH-352" style="edgeStyle=orthogonalEdgeStyle;rounded=0;orthogonalLoop=1;jettySize=auto;html=1;" parent="1" source="rQkRtYJSGVrKPp-QHFrH-351" target="rQkRtYJSGVrKPp-QHFrH-341" edge="1">
          <mxGeometry relative="1" as="geometry" />
        </mxCell>
        <mxCell id="rQkRtYJSGVrKPp-QHFrH-351" value="Transaction_Date" style="ellipse;whiteSpace=wrap;html=1;fontStyle=1;fillColor=#d0cee2;strokeColor=#56517e;fontSize=20;" parent="1" vertex="1">
          <mxGeometry x="-945" y="-210" width="200" height="58.68" as="geometry" />
        </mxCell>
        <mxCell id="rQkRtYJSGVrKPp-QHFrH-368" value="Product_Audit" style="rounded=0;whiteSpace=wrap;html=1;fontFamily=gadugi;fillColor=#ffe6cc;strokeColor=light-dark(#fe3496, #996500);textShadow=0;labelBorderColor=none;labelBackgroundColor=none;fontSize=23;fontStyle=1" parent="1" vertex="1">
          <mxGeometry x="640" y="-445.22" width="210" height="75.22" as="geometry" />
        </mxCell>
        <mxCell id="rQkRtYJSGVrKPp-QHFrH-369" style="edgeStyle=orthogonalEdgeStyle;rounded=0;orthogonalLoop=1;jettySize=auto;html=1;exitX=0.5;exitY=1;exitDx=0;exitDy=0;textShadow=0;labelBorderColor=none;labelBackgroundColor=none;" parent="1" source="rQkRtYJSGVrKPp-QHFrH-368" target="rQkRtYJSGVrKPp-QHFrH-368" edge="1">
          <mxGeometry relative="1" as="geometry" />
        </mxCell>
        <mxCell id="rQkRtYJSGVrKPp-QHFrH-370" style="edgeStyle=orthogonalEdgeStyle;rounded=0;orthogonalLoop=1;jettySize=auto;html=1;exitX=0.5;exitY=1;exitDx=0;exitDy=0;textShadow=0;labelBorderColor=none;labelBackgroundColor=none;" parent="1" source="rQkRtYJSGVrKPp-QHFrH-371" edge="1">
          <mxGeometry relative="1" as="geometry">
            <mxPoint x="640" y="-435" as="targetPoint" />
            <Array as="points">
              <mxPoint x="580" y="-435.22" />
              <mxPoint x="690" y="-435.22" />
            </Array>
          </mxGeometry>
        </mxCell>
        <mxCell id="rQkRtYJSGVrKPp-QHFrH-371" value="Audit_ID" style="ellipse;whiteSpace=wrap;html=1;fontStyle=5;fillColor=#d0cee2;strokeColor=#56517e;textShadow=0;labelBorderColor=none;labelBackgroundColor=none;fontSize=20;" parent="1" vertex="1">
          <mxGeometry x="390" y="-490" width="160" height="44.78" as="geometry" />
        </mxCell>
        <mxCell id="rQkRtYJSGVrKPp-QHFrH-372" style="edgeStyle=orthogonalEdgeStyle;rounded=0;orthogonalLoop=1;jettySize=auto;html=1;exitX=0.5;exitY=1;exitDx=0;exitDy=0;textShadow=0;labelBorderColor=none;labelBackgroundColor=none;" parent="1" source="rQkRtYJSGVrKPp-QHFrH-373" target="rQkRtYJSGVrKPp-QHFrH-368" edge="1">
          <mxGeometry relative="1" as="geometry">
            <Array as="points">
              <mxPoint x="1020" y="-445" />
              <mxPoint x="1020" y="-435" />
            </Array>
          </mxGeometry>
        </mxCell>
        <mxCell id="rQkRtYJSGVrKPp-QHFrH-373" value="Time_Stamp" style="ellipse;whiteSpace=wrap;html=1;fontStyle=1;fillColor=#d0cee2;strokeColor=#56517e;textShadow=0;labelBorderColor=none;labelBackgroundColor=none;fontSize=20;" parent="1" vertex="1">
          <mxGeometry x="940" y="-488.22" width="150" height="43" as="geometry" />
        </mxCell>
        <mxCell id="rQkRtYJSGVrKPp-QHFrH-374" value="Change_Details" style="ellipse;whiteSpace=wrap;html=1;fontStyle=1;fillColor=#d0cee2;strokeColor=#56517e;textShadow=0;labelBorderColor=none;labelBackgroundColor=none;fontSize=20;" parent="1" vertex="1">
          <mxGeometry x="850" y="-540" width="160" height="47.78" as="geometry" />
        </mxCell>
        <mxCell id="rQkRtYJSGVrKPp-QHFrH-375" value="Admin_ID" style="ellipse;whiteSpace=wrap;html=1;fontStyle=1;fillColor=#d0cee2;strokeColor=#56517e;textShadow=0;labelBorderColor=none;labelBackgroundColor=none;fontSize=20;" parent="1" vertex="1">
          <mxGeometry x="490" y="-540" width="150" height="47.78" as="geometry" />
        </mxCell>
        <mxCell id="rQkRtYJSGVrKPp-QHFrH-376" style="edgeStyle=orthogonalEdgeStyle;rounded=0;orthogonalLoop=1;jettySize=auto;html=1;exitX=0.5;exitY=1;exitDx=0;exitDy=0;textShadow=0;labelBorderColor=none;labelBackgroundColor=none;" parent="1" source="rQkRtYJSGVrKPp-QHFrH-377" target="rQkRtYJSGVrKPp-QHFrH-368" edge="1">
          <mxGeometry relative="1" as="geometry">
            <mxPoint x="750" y="-485.22" as="sourcePoint" />
          </mxGeometry>
        </mxCell>
        <mxCell id="rQkRtYJSGVrKPp-QHFrH-377" value="Product_ID" style="ellipse;whiteSpace=wrap;html=1;fontStyle=1;fillColor=#d0cee2;strokeColor=#56517e;textShadow=0;labelBorderColor=none;labelBackgroundColor=none;fontSize=20;" parent="1" vertex="1">
          <mxGeometry x="610" y="-580" width="130" height="47.78" as="geometry" />
        </mxCell>
        <mxCell id="rQkRtYJSGVrKPp-QHFrH-378" style="edgeStyle=orthogonalEdgeStyle;rounded=0;orthogonalLoop=1;jettySize=auto;html=1;exitX=0.5;exitY=1;exitDx=0;exitDy=0;textShadow=0;labelBorderColor=none;labelBackgroundColor=none;" parent="1" source="rQkRtYJSGVrKPp-QHFrH-374" edge="1">
          <mxGeometry relative="1" as="geometry">
            <mxPoint x="770" y="-445.22" as="targetPoint" />
          </mxGeometry>
        </mxCell>
        <mxCell id="rQkRtYJSGVrKPp-QHFrH-379" style="edgeStyle=orthogonalEdgeStyle;rounded=0;orthogonalLoop=1;jettySize=auto;html=1;exitX=0.5;exitY=1;exitDx=0;exitDy=0;entryX=0.365;entryY=-0.01;entryDx=0;entryDy=0;entryPerimeter=0;textShadow=0;labelBorderColor=none;labelBackgroundColor=none;" parent="1" source="rQkRtYJSGVrKPp-QHFrH-375" target="rQkRtYJSGVrKPp-QHFrH-368" edge="1">
          <mxGeometry relative="1" as="geometry" />
        </mxCell>
        <mxCell id="rQkRtYJSGVrKPp-QHFrH-380" value="" style="edgeStyle=orthogonalEdgeStyle;rounded=0;orthogonalLoop=1;jettySize=auto;html=1;textShadow=0;labelBorderColor=none;labelBackgroundColor=none;" parent="1" edge="1">
          <mxGeometry relative="1" as="geometry">
            <mxPoint x="820" y="-532.22" as="sourcePoint" />
            <mxPoint x="760" y="-445.22" as="targetPoint" />
            <Array as="points">
              <mxPoint x="820" y="-489.22" />
              <mxPoint x="760" y="-489.22" />
            </Array>
          </mxGeometry>
        </mxCell>
        <mxCell id="rQkRtYJSGVrKPp-QHFrH-381" value="Change_Type" style="ellipse;whiteSpace=wrap;html=1;fontStyle=1;fillColor=#d0cee2;strokeColor=#56517e;textShadow=0;labelBorderColor=none;labelBackgroundColor=none;fontSize=20;" parent="1" vertex="1">
          <mxGeometry x="750" y="-580" width="140" height="47.78" as="geometry" />
        </mxCell>
        <mxCell id="rQkRtYJSGVrKPp-QHFrH-382" style="edgeStyle=orthogonalEdgeStyle;rounded=0;orthogonalLoop=1;jettySize=auto;html=1;exitX=0.5;exitY=1;exitDx=0;exitDy=0;textShadow=0;labelBorderColor=none;labelBackgroundColor=none;" parent="1" source="rQkRtYJSGVrKPp-QHFrH-373" target="rQkRtYJSGVrKPp-QHFrH-373" edge="1">
          <mxGeometry relative="1" as="geometry" />
        </mxCell>
        <mxCell id="rQkRtYJSGVrKPp-QHFrH-402" value="Gift_Card" style="rounded=0;whiteSpace=wrap;html=1;fontFamily=gadugi;fillColor=#ffe6cc;strokeColor=light-dark(#fe3496, #996500);fontSize=23;fontStyle=1" parent="1" vertex="1">
          <mxGeometry x="-820" y="-487.72" width="190" height="97.72" as="geometry" />
        </mxCell>
        <mxCell id="rQkRtYJSGVrKPp-QHFrH-403" style="edgeStyle=orthogonalEdgeStyle;rounded=0;orthogonalLoop=1;jettySize=auto;html=1;exitX=0.5;exitY=1;exitDx=0;exitDy=0;" parent="1" source="rQkRtYJSGVrKPp-QHFrH-402" target="rQkRtYJSGVrKPp-QHFrH-402" edge="1">
          <mxGeometry relative="1" as="geometry" />
        </mxCell>
        <mxCell id="rQkRtYJSGVrKPp-QHFrH-404" style="edgeStyle=orthogonalEdgeStyle;rounded=0;orthogonalLoop=1;jettySize=auto;html=1;exitX=0.5;exitY=1;exitDx=0;exitDy=0;" parent="1" source="rQkRtYJSGVrKPp-QHFrH-405" edge="1">
          <mxGeometry relative="1" as="geometry">
            <mxPoint x="-830" y="-480" as="targetPoint" />
            <Array as="points">
              <mxPoint x="-894" y="-477.7200000000002" />
              <mxPoint x="-784" y="-477.7200000000002" />
            </Array>
          </mxGeometry>
        </mxCell>
        <mxCell id="rQkRtYJSGVrKPp-QHFrH-405" value="Gift_Card_ID" style="ellipse;whiteSpace=wrap;html=1;fontStyle=5;fillColor=#d0cee2;strokeColor=#56517e;fontSize=20;" parent="1" vertex="1">
          <mxGeometry x="-1136" y="-540" width="156" height="40" as="geometry" />
        </mxCell>
        <mxCell id="rQkRtYJSGVrKPp-QHFrH-406" style="edgeStyle=orthogonalEdgeStyle;rounded=0;orthogonalLoop=1;jettySize=auto;html=1;exitX=0.5;exitY=1;exitDx=0;exitDy=0;" parent="1" source="rQkRtYJSGVrKPp-QHFrH-407" target="rQkRtYJSGVrKPp-QHFrH-402" edge="1">
          <mxGeometry relative="1" as="geometry">
            <Array as="points">
              <mxPoint x="-350" y="-480" />
            </Array>
          </mxGeometry>
        </mxCell>
        <mxCell id="rQkRtYJSGVrKPp-QHFrH-407" value="Payment_ID" style="ellipse;whiteSpace=wrap;html=1;fontStyle=1;fillColor=#d0cee2;strokeColor=#56517e;fontSize=20;" parent="1" vertex="1">
          <mxGeometry x="-410" y="-554.38" width="160" height="43" as="geometry" />
        </mxCell>
        <mxCell id="rQkRtYJSGVrKPp-QHFrH-408" value="Expiration_Date" style="ellipse;whiteSpace=wrap;html=1;fontStyle=1;fillColor=#d0cee2;strokeColor=#56517e;fontSize=20;" parent="1" vertex="1">
          <mxGeometry x="-510" y="-594.38" width="180" height="40" as="geometry" />
        </mxCell>
        <mxCell id="rQkRtYJSGVrKPp-QHFrH-409" value="Sender_ID" style="ellipse;whiteSpace=wrap;html=1;fontStyle=1;fillColor=#d0cee2;strokeColor=#56517e;fontSize=20;" parent="1" vertex="1">
          <mxGeometry x="-1060" y="-580" width="160" height="40" as="geometry" />
        </mxCell>
        <mxCell id="rQkRtYJSGVrKPp-QHFrH-410" style="edgeStyle=orthogonalEdgeStyle;rounded=0;orthogonalLoop=1;jettySize=auto;html=1;exitX=0.5;exitY=1;exitDx=0;exitDy=0;" parent="1" source="rQkRtYJSGVrKPp-QHFrH-411" target="rQkRtYJSGVrKPp-QHFrH-402" edge="1">
          <mxGeometry relative="1" as="geometry">
            <mxPoint x="-724" y="-527.7200000000003" as="sourcePoint" />
            <Array as="points">
              <mxPoint x="-874" y="-547.0500000000002" />
              <mxPoint x="-734" y="-547.0500000000002" />
            </Array>
          </mxGeometry>
        </mxCell>
        <mxCell id="rQkRtYJSGVrKPp-QHFrH-411" value="Personal_Note" style="ellipse;whiteSpace=wrap;html=1;fontStyle=1;fillColor=#d0cee2;strokeColor=#56517e;fontSize=20;" parent="1" vertex="1">
          <mxGeometry x="-988" y="-635.71" width="166" height="40" as="geometry" />
        </mxCell>
        <mxCell id="rQkRtYJSGVrKPp-QHFrH-412" style="edgeStyle=orthogonalEdgeStyle;rounded=0;orthogonalLoop=1;jettySize=auto;html=1;exitX=0.5;exitY=1;exitDx=0;exitDy=0;entryX=0.75;entryY=0;entryDx=0;entryDy=0;" parent="1" source="rQkRtYJSGVrKPp-QHFrH-408" target="rQkRtYJSGVrKPp-QHFrH-402" edge="1">
          <mxGeometry relative="1" as="geometry">
            <mxPoint x="-694" y="-496.0500000000001" as="targetPoint" />
          </mxGeometry>
        </mxCell>
        <mxCell id="rQkRtYJSGVrKPp-QHFrH-413" style="edgeStyle=orthogonalEdgeStyle;rounded=0;orthogonalLoop=1;jettySize=auto;html=1;exitX=0.5;exitY=1;exitDx=0;exitDy=0;entryX=0.365;entryY=-0.01;entryDx=0;entryDy=0;entryPerimeter=0;" parent="1" source="rQkRtYJSGVrKPp-QHFrH-409" target="rQkRtYJSGVrKPp-QHFrH-402" edge="1">
          <mxGeometry relative="1" as="geometry" />
        </mxCell>
        <mxCell id="rQkRtYJSGVrKPp-QHFrH-415" value="Generated_At" style="ellipse;whiteSpace=wrap;html=1;fontStyle=1;fillColor=#d0cee2;strokeColor=#56517e;fontSize=20;" parent="1" vertex="1">
          <mxGeometry x="-610" y="-635.71" width="176" height="40" as="geometry" />
        </mxCell>
        <mxCell id="rQkRtYJSGVrKPp-QHFrH-416" style="edgeStyle=orthogonalEdgeStyle;rounded=0;orthogonalLoop=1;jettySize=auto;html=1;exitX=0.5;exitY=1;exitDx=0;exitDy=0;" parent="1" source="rQkRtYJSGVrKPp-QHFrH-407" target="rQkRtYJSGVrKPp-QHFrH-407" edge="1">
          <mxGeometry relative="1" as="geometry" />
        </mxCell>
        <mxCell id="rQkRtYJSGVrKPp-QHFrH-417" style="edgeStyle=orthogonalEdgeStyle;rounded=0;orthogonalLoop=1;jettySize=auto;html=1;exitX=0.5;exitY=1;exitDx=0;exitDy=0;" parent="1" edge="1">
          <mxGeometry relative="1" as="geometry">
            <mxPoint x="-730" y="-486.0500000000001" as="targetPoint" />
            <mxPoint x="-816" y="-635.7099999999998" as="sourcePoint" />
            <Array as="points">
              <mxPoint x="-816" y="-560" />
              <mxPoint x="-730" y="-560" />
            </Array>
          </mxGeometry>
        </mxCell>
        <mxCell id="rQkRtYJSGVrKPp-QHFrH-418" value="Recipient_Email" style="ellipse;whiteSpace=wrap;html=1;fontStyle=1;fillColor=#d0cee2;strokeColor=#56517e;fontSize=20;direction=west;" parent="1" vertex="1">
          <mxGeometry x="-910" y="-675.71" width="180" height="40" as="geometry" />
        </mxCell>
        <mxCell id="rQkRtYJSGVrKPp-QHFrH-419" style="edgeStyle=orthogonalEdgeStyle;rounded=0;orthogonalLoop=1;jettySize=auto;html=1;exitX=0.5;exitY=1;exitDx=0;exitDy=0;" parent="1" source="rQkRtYJSGVrKPp-QHFrH-420" edge="1">
          <mxGeometry relative="1" as="geometry">
            <mxPoint x="-714" y="-486.0500000000001" as="targetPoint" />
          </mxGeometry>
        </mxCell>
        <mxCell id="rQkRtYJSGVrKPp-QHFrH-420" value="Used_Status" style="ellipse;whiteSpace=wrap;html=1;fontStyle=1;fillColor=#d0cee2;strokeColor=#56517e;fontSize=20;" parent="1" vertex="1">
          <mxGeometry x="-710" y="-675.71" width="180" height="40" as="geometry" />
        </mxCell>
        <mxCell id="rQkRtYJSGVrKPp-QHFrH-421" style="edgeStyle=orthogonalEdgeStyle;rounded=0;orthogonalLoop=1;jettySize=auto;html=1;exitX=0.5;exitY=1;exitDx=0;exitDy=0;entryX=0.667;entryY=0.012;entryDx=0;entryDy=0;entryPerimeter=0;" parent="1" source="rQkRtYJSGVrKPp-QHFrH-415" target="rQkRtYJSGVrKPp-QHFrH-402" edge="1">
          <mxGeometry relative="1" as="geometry" />
        </mxCell>
        <mxCell id="rQkRtYJSGVrKPp-QHFrH-422" value="Gift_Amount" style="ellipse;whiteSpace=wrap;html=1;fontStyle=1;fillColor=#d0cee2;strokeColor=#56517e;fontSize=20;" parent="1" vertex="1">
          <mxGeometry x="-810" y="-740" width="170" height="50" as="geometry" />
        </mxCell>
        <mxCell id="rQkRtYJSGVrKPp-QHFrH-423" style="edgeStyle=orthogonalEdgeStyle;rounded=0;orthogonalLoop=1;jettySize=auto;html=1;entryX=0.548;entryY=0.012;entryDx=0;entryDy=0;entryPerimeter=0;" parent="1" source="rQkRtYJSGVrKPp-QHFrH-422" target="rQkRtYJSGVrKPp-QHFrH-402" edge="1">
          <mxGeometry relative="1" as="geometry">
            <Array as="points">
              <mxPoint x="-724" y="-686.0500000000002" />
              <mxPoint x="-724" y="-686.0500000000002" />
            </Array>
          </mxGeometry>
        </mxCell>
        <mxCell id="rQkRtYJSGVrKPp-QHFrH-107" value="Admin" style="rounded=0;whiteSpace=wrap;html=1;fontFamily=gadugi;fillColor=#ffe6cc;strokeColor=light-dark(#fe3496, #996500);fontSize=23;fontStyle=1" parent="1" vertex="1">
          <mxGeometry x="610" y="-1188" width="210" height="88" as="geometry" />
        </mxCell>
        <mxCell id="yJHCzrc06ZQvmD5bulq7-12" style="edgeStyle=orthogonalEdgeStyle;rounded=0;orthogonalLoop=1;jettySize=auto;html=1;exitX=0.5;exitY=1;exitDx=0;exitDy=0;entryX=0.856;entryY=-0.005;entryDx=0;entryDy=0;entryPerimeter=0;" parent="1" source="rQkRtYJSGVrKPp-QHFrH-350" target="rQkRtYJSGVrKPp-QHFrH-341" edge="1">
          <mxGeometry relative="1" as="geometry" />
        </mxCell>
        <mxCell id="yJHCzrc06ZQvmD5bulq7-14" style="edgeStyle=orthogonalEdgeStyle;rounded=0;orthogonalLoop=1;jettySize=auto;html=1;exitX=0.5;exitY=1;exitDx=0;exitDy=0;entryX=0.645;entryY=0.075;entryDx=0;entryDy=0;entryPerimeter=0;" parent="1" source="rQkRtYJSGVrKPp-QHFrH-345" target="rQkRtYJSGVrKPp-QHFrH-341" edge="1">
          <mxGeometry relative="1" as="geometry" />
        </mxCell>
        <mxCell id="yJHCzrc06ZQvmD5bulq7-15" style="edgeStyle=orthogonalEdgeStyle;rounded=0;orthogonalLoop=1;jettySize=auto;html=1;exitX=0.5;exitY=1;exitDx=0;exitDy=0;entryX=0.361;entryY=0.035;entryDx=0;entryDy=0;entryPerimeter=0;" parent="1" source="rQkRtYJSGVrKPp-QHFrH-346" target="rQkRtYJSGVrKPp-QHFrH-341" edge="1">
          <mxGeometry relative="1" as="geometry" />
        </mxCell>
        <mxCell id="yJHCzrc06ZQvmD5bulq7-19" style="edgeStyle=orthogonalEdgeStyle;rounded=0;orthogonalLoop=1;jettySize=auto;html=1;exitX=0.5;exitY=1;exitDx=0;exitDy=0;entryX=0.918;entryY=0.02;entryDx=0;entryDy=0;entryPerimeter=0;" parent="1" source="rQkRtYJSGVrKPp-QHFrH-317" target="rQkRtYJSGVrKPp-QHFrH-308" edge="1">
          <mxGeometry relative="1" as="geometry" />
        </mxCell>
        <mxCell id="yJHCzrc06ZQvmD5bulq7-20" value="" style="shape=note;whiteSpace=wrap;html=1;backgroundOutline=1;fontColor=#000000;darkOpacity=0.05;fillColor=#FFF9B2;strokeColor=none;fillStyle=solid;direction=west;gradientDirection=north;gradientColor=#FFF2A1;shadow=1;size=20;pointerEvents=1;" parent="1" vertex="1">
          <mxGeometry x="-330" y="-20" width="190" height="110" as="geometry" />
        </mxCell>
        <mxCell id="e_lPp5WETMrQ2OMcBh4P-2" style="edgeStyle=orthogonalEdgeStyle;rounded=0;orthogonalLoop=1;jettySize=auto;html=1;exitX=0.5;exitY=1;exitDx=0;exitDy=0;entryX=0.433;entryY=0.011;entryDx=0;entryDy=0;entryPerimeter=0;" edge="1" parent="1" source="rQkRtYJSGVrKPp-QHFrH-284" target="rQkRtYJSGVrKPp-QHFrH-275">
          <mxGeometry relative="1" as="geometry" />
        </mxCell>
        <mxCell id="e_lPp5WETMrQ2OMcBh4P-5" style="edgeStyle=orthogonalEdgeStyle;rounded=0;orthogonalLoop=1;jettySize=auto;html=1;exitX=0.5;exitY=0;exitDx=0;exitDy=0;entryX=0.117;entryY=0.071;entryDx=0;entryDy=0;entryPerimeter=0;" edge="1" parent="1" source="rQkRtYJSGVrKPp-QHFrH-344" target="rQkRtYJSGVrKPp-QHFrH-341">
          <mxGeometry relative="1" as="geometry" />
        </mxCell>
        <mxCell id="e_lPp5WETMrQ2OMcBh4P-7" style="edgeStyle=orthogonalEdgeStyle;rounded=0;orthogonalLoop=1;jettySize=auto;html=1;exitX=0.5;exitY=1;exitDx=0;exitDy=0;entryX=0.552;entryY=-0.014;entryDx=0;entryDy=0;entryPerimeter=0;" edge="1" parent="1" source="rQkRtYJSGVrKPp-QHFrH-161" target="rQkRtYJSGVrKPp-QHFrH-148">
          <mxGeometry relative="1" as="geometry" />
        </mxCell>
        <mxCell id="e_lPp5WETMrQ2OMcBh4P-9" style="edgeStyle=orthogonalEdgeStyle;rounded=0;orthogonalLoop=1;jettySize=auto;html=1;exitX=0.5;exitY=1;exitDx=0;exitDy=0;entryX=1.017;entryY=0.157;entryDx=0;entryDy=0;entryPerimeter=0;" edge="1" parent="1">
          <mxGeometry relative="1" as="geometry">
            <mxPoint x="-407.06" y="-1200" as="sourcePoint" />
            <mxPoint x="-583.9999999999998" y="-1169.969" as="targetPoint" />
          </mxGeometry>
        </mxCell>
      </root>
    </mxGraphModel>
  </diagram>
</mxfile>
